<svg width="20" height="21" viewBox="0 0 20 21" fill="none" xmlns="http://www.w3.org/2000/svg">
<path d="M15 16.4316H14.3667C13.7 16.4316 13.0667 16.6919 12.6 17.1622L11.175 18.5814C10.525 19.228 9.46668 19.228 8.81668 18.5814L7.39166 17.1622C6.925 16.6919 6.28333 16.4316 5.625 16.4316H5C3.61667 16.4316 2.5 15.3148 2.5 13.9376V4.7675C2.5 3.3903 3.61667 2.27344 5 2.27344H15C16.3833 2.27344 17.5 3.3903 17.5 4.7675V13.9292C17.5 15.3064 16.3833 16.4316 15 16.4316Z" stroke="#00162E" stroke-width="1.2" stroke-miterlimit="10" stroke-linecap="round" stroke-linejoin="round"/>
<path d="M10.0579 8.10999C10.0246 8.10999 9.97455 8.10999 9.93288 8.10999C9.05788 8.0764 8.36621 7.36261 8.36621 6.47247C8.36621 5.56554 9.09122 4.83496 9.99122 4.83496C10.8912 4.83496 11.6162 5.57394 11.6162 6.47247C11.6246 7.36261 10.9329 8.08479 10.0579 8.10999Z" stroke="#00162E" stroke-width="1.2" stroke-linecap="round" stroke-linejoin="round"/>
<path d="M7.7082 10.6376C6.59987 11.385 6.59987 12.6026 7.7082 13.35C8.96654 14.1982 11.0332 14.1982 12.2915 13.35C13.3999 12.6026 13.3999 11.385 12.2915 10.6376C11.0332 9.79787 8.97487 9.79787 7.7082 10.6376Z" stroke="#00162E" stroke-width="1.2" stroke-linecap="round" stroke-linejoin="round"/>
</svg>
