<svg width="20" height="20" viewBox="0 0 20 20" fill="none" xmlns="http://www.w3.org/2000/svg">
<g clip-path="url(#clip0_745_5233)">
<path d="M1.72537 3.8334C2.39204 0.950065 6.73371 0.950065 7.39204 3.8334C7.78371 5.52507 6.70871 6.9584 5.77537 7.85007C5.09204 8.50007 4.01704 8.49173 3.33371 7.85007C2.40871 6.9584 1.33371 5.52507 1.72537 3.8334Z" stroke="#808B97" stroke-width="1.2"/>
<path d="M12.5583 13.8334C13.225 10.9501 17.5917 10.9501 18.2583 13.8334C18.65 15.5251 17.575 16.9584 16.6333 17.8501C15.95 18.5001 14.8667 18.4917 14.1833 17.8501C13.2417 16.9584 12.1667 15.5251 12.5583 13.8334Z" stroke="#808B97" stroke-width="1.2"/>
<path d="M10.0004 4.1665H12.2337C13.7754 4.1665 14.4921 6.07484 13.3337 7.0915L6.6754 12.9165C5.51707 13.9248 6.23373 15.8332 7.76707 15.8332H10.0004" stroke="#808B97" stroke-width="1.2" stroke-linecap="round" stroke-linejoin="round"/>
<path d="M4.57209 4.58317H4.58172" stroke="#808B97" stroke-width="1.5" stroke-linecap="round" stroke-linejoin="round"/>
<path d="M15.4051 14.5832H15.4147" stroke="#808B97" stroke-width="1.5" stroke-linecap="round" stroke-linejoin="round"/>
</g>
<defs>
<clipPath id="clip0_745_5233">
<rect width="20" height="20" fill="white"/>
</clipPath>
</defs>
</svg>
