<svg width="28" height="28" viewBox="0 0 28 28" fill="none" xmlns="http://www.w3.org/2000/svg">
<path d="M9.67157 16.0601C9.62504 15.9814 9.56277 15.9124 9.48836 15.8569C9.41395 15.8015 9.32886 15.7607 9.238 15.737C9.14713 15.7133 9.05228 15.7071 8.95892 15.7188C8.86555 15.7304 8.7755 15.7597 8.69396 15.805C8.61242 15.8502 8.541 15.9106 8.48381 15.9825C8.42662 16.0543 8.38478 16.1364 8.36072 16.2239C8.33665 16.3114 8.33083 16.4026 8.34358 16.4923C8.35634 16.582 8.38742 16.6683 8.43504 16.7464C8.99887 17.6857 9.81015 18.4657 10.7872 19.0078C11.7643 19.55 12.8727 19.8351 14.0009 19.8346C15.129 19.8348 16.2373 19.5496 17.2143 19.0075C18.1913 18.4653 19.0027 17.6855 19.5667 16.7464C19.6143 16.6683 19.6454 16.582 19.6582 16.4923C19.6709 16.4026 19.6651 16.3114 19.641 16.2239C19.617 16.1364 19.5751 16.0543 19.5179 15.9825C19.4608 15.9106 19.3893 15.8502 19.3078 15.805C19.2263 15.7597 19.1362 15.7304 19.0428 15.7188C18.9495 15.7071 18.8546 15.7133 18.7638 15.737C18.6729 15.7607 18.5878 15.8015 18.5134 15.8569C18.439 15.9124 18.3767 15.9814 18.3302 16.0601C17.8917 16.7908 17.2606 17.3975 16.5006 17.8192C15.7406 18.2408 14.8784 18.4626 14.0009 18.4621C13.1233 18.4626 12.2612 18.2408 11.5011 17.8192C10.7411 17.3975 10.1101 16.7908 9.67157 16.0601ZM12.573 9.69973V9.54052C12.573 9.1765 12.4226 8.82738 12.1548 8.56998C11.887 8.31258 11.5238 8.16797 11.1451 8.16797H7.26133C7.04428 8.16797 6.8301 8.21554 6.63505 8.30706C6.44 8.39857 6.26922 8.53163 6.13569 8.69611C6.00216 8.86059 5.9094 9.05216 5.86445 9.25628C5.8195 9.46039 5.82355 9.67167 5.87629 9.87405L6.32036 11.5788C6.47479 12.1726 6.83129 12.6998 7.33319 13.0766C7.8351 13.4534 8.45361 13.6581 9.09043 13.6582H9.71727C10.435 13.6583 11.1264 13.3987 11.654 12.931C12.1816 12.4633 12.5067 11.8217 12.5644 11.134C13.0266 10.9819 13.5124 10.9072 14.0009 10.9131C14.562 10.9131 15.0575 11.0009 15.4373 11.134C15.4951 11.8217 15.8201 12.4633 16.3477 12.931C16.8753 13.3987 17.5668 13.6583 18.2845 13.6582H18.9099C19.5467 13.6581 20.1652 13.4534 20.6671 13.0766C21.169 12.6998 21.5255 12.1726 21.68 11.5788L22.124 9.87405C22.1767 9.67178 22.1808 9.46062 22.136 9.25661C22.0911 9.0526 21.9984 8.8611 21.8651 8.69665C21.7317 8.5322 21.5611 8.39911 21.3662 8.30751C21.1714 8.2159 20.9573 8.16818 20.7404 8.16797H16.8566C16.4779 8.16797 16.1147 8.31258 15.847 8.56998C15.5792 8.82738 15.4287 9.1765 15.4287 9.54052V9.69973C14.9611 9.59208 14.4817 9.53863 14.0009 9.54052C13.5011 9.54052 13.0156 9.59542 12.573 9.69973Z" fill="#5465FF"/>
<path d="M25.6668 14.0007C25.6668 17.0948 24.4377 20.0623 22.2497 22.2502C20.0618 24.4382 17.0944 25.6673 14.0002 25.6673C10.906 25.6673 7.93851 24.4382 5.75058 22.2502C3.56266 20.0623 2.3335 17.0948 2.3335 14.0007C2.3335 10.9065 3.56266 7.939 5.75058 5.75107C7.93851 3.56315 10.906 2.33398 14.0002 2.33398C17.0944 2.33398 20.0618 3.56315 22.2497 5.75107C24.4377 7.939 25.6668 10.9065 25.6668 14.0007ZM24.2085 14.0007C24.2085 11.2932 23.133 8.6967 21.2185 6.78227C19.3041 4.86784 16.7076 3.79232 14.0002 3.79232C11.2927 3.79232 8.69621 4.86784 6.78178 6.78227C4.86735 8.6967 3.79183 11.2932 3.79183 14.0007C3.79183 16.7081 4.86735 19.3046 6.78178 21.219C8.69621 23.1335 11.2927 24.209 14.0002 24.209C16.7076 24.209 19.3041 23.1335 21.2185 21.219C23.133 19.3046 24.2085 16.7081 24.2085 14.0007Z" fill="#5465FF"/>
</svg>
