<svg width="20" height="20" viewBox="0 0 20 20" fill="none" xmlns="http://www.w3.org/2000/svg">
<g id="Amount">
<g id="vuesax/linear/money-recive">
<g id="Group">
<path id="Vector" d="M7.91666 11.4585C7.91666 12.2669 8.54167 12.9169 9.30833 12.9169H10.875C11.5416 12.9169 12.0833 12.3502 12.0833 11.6419C12.0833 10.8835 11.75 10.6085 11.2583 10.4335L8.74999 9.55853C8.25832 9.38353 7.925 9.11686 7.925 8.35019C7.925 7.65019 8.46665 7.0752 9.13332 7.0752H10.7C11.4667 7.0752 12.0917 7.7252 12.0917 8.53353" stroke="#808B97" stroke-width="1.2" stroke-linecap="round" stroke-linejoin="round"/>
<path id="Vector_2" d="M10 6.25V13.75" stroke="#808B97" stroke-width="1.2" stroke-linecap="round" stroke-linejoin="round"/>
</g>
<path id="Vector_3" d="M18.3333 10.0003C18.3333 14.6003 14.6 18.3337 9.99999 18.3337C5.39999 18.3337 1.66666 14.6003 1.66666 10.0003C1.66666 5.40033 5.39999 1.66699 9.99999 1.66699" stroke="#808B97" stroke-width="1.2" stroke-linecap="round" stroke-linejoin="round"/>
<path id="Vector_4" d="M14.1667 2.5V5.83333H17.5" stroke="#808B97" stroke-width="1.2" stroke-linecap="round" stroke-linejoin="round"/>
<path id="Vector_5" d="M18.3333 1.66699L14.1667 5.83366" stroke="#808B97" stroke-width="1.2" stroke-linecap="round" stroke-linejoin="round"/>
</g>
</g>
</svg>
