<svg width="28" height="21" viewBox="0 0 28 21" fill="none" xmlns="http://www.w3.org/2000/svg">
<g clip-path="url(#clip0_1479_5473)">
<path d="M0 0H28V21H0V0Z" fill="#00008B"/>
<path d="M1.64062 0L6.97813 3.95937L12.2937 0H14V1.35625L8.75 5.27187L14 9.16562V10.5H12.25L7 6.58437L1.77188 10.5H0V9.1875L5.22813 5.29375L0 1.4V0H1.64062Z" fill="white"/>
<path d="M9.275 6.14687L14 9.625V10.5L8.07187 6.14687H9.275ZM5.25 6.58437L5.38125 7.35L1.18125 10.5H0L5.25 6.58437ZM14 0V0.065625L8.55312 4.17812L8.59688 3.21563L12.9062 0H14ZM0 0L5.22813 3.85H3.91562L0 0.91875V0Z" fill="#FF0000"/>
<path d="M5.27187 0V10.5H8.77187V0H5.27187ZM0 3.5V7H14V3.5H0Z" fill="white"/>
<path d="M0 4.22187V6.32188H14V4.22187H0ZM5.97187 0V10.5H8.07187V0H5.97187Z" fill="#FF0000"/>
<path d="M23.056 17.3553L22.1591 17.4691L22.2554 18.3659L21.6079 17.7359L20.9647 18.3703L21.0522 17.4734L20.1554 17.3684L20.9122 16.8784L20.4354 16.1128L21.2929 16.3972L21.5947 15.5441L21.9054 16.3928L22.7585 16.0997L22.2904 16.8697L23.0516 17.3553H23.056ZM22.8941 12.2278L23.0122 11.6591L22.5835 11.2653L23.161 11.1997L23.4016 10.6703L23.6422 11.1997L24.2197 11.2653L23.791 11.6591L23.9091 12.2278L23.4016 11.9391L22.8941 12.2278ZM18.3397 9.60281L17.4516 9.69906L17.5304 10.5872L16.9004 9.95281L16.2529 10.5697L16.3579 9.68156L15.4741 9.56344L16.231 9.09094L15.7716 8.32531L16.616 8.62281L16.931 7.78719L17.2241 8.63156L18.0729 8.35594L17.596 9.11281L18.3441 9.60281H18.3397ZM27.256 8.16781L26.3416 8.28594L26.4422 9.20031L25.7816 8.55719L25.1254 9.20469L25.2172 8.28594L24.3029 8.18094L25.0772 7.67781L24.5916 6.89469L25.4666 7.18781L25.7729 6.32156L26.0879 7.18781L26.9585 6.88594L26.4772 7.67344L27.256 8.16781ZM23.0516 4.51469L22.146 4.61531L22.2291 5.52531L21.586 4.87781L20.9254 5.50781L21.0304 4.60219L20.1247 4.47969L20.8991 3.99844L20.431 3.21531L21.2929 3.51719L21.6122 2.66406L21.9097 3.52594L22.776 3.24156L22.2904 4.01156L23.0516 4.51469ZM10.2372 16.8741L8.23348 17.1103L8.43473 19.1184L6.99973 17.7009L5.55598 19.1097L5.77035 17.1016L3.7666 16.8478L5.46848 15.7628L4.41848 14.0391L6.32598 14.6953L7.01723 12.7966L7.69535 14.6997L9.60723 14.0566L8.5441 15.7716L10.2416 16.8697L10.2372 16.8741Z" fill="white"/>
</g>
<defs>
<clipPath id="clip0_1479_5473">
<rect width="28" height="21" rx="4" fill="white"/>
</clipPath>
</defs>
</svg>
