<svg width="22" height="22" viewBox="0 0 22 22" fill="none" xmlns="http://www.w3.org/2000/svg">
<g id="Icon">
<g id="vuesax/bold/briefcase">
<path id="Vector" d="M19.3325 6.39888C18.5533 5.53721 17.2516 5.10638 15.3633 5.10638H15.1433V5.06971C15.1433 3.52971 15.1433 1.62305 11.6966 1.62305H10.3033C6.85662 1.62305 6.85662 3.53888 6.85662 5.06971V5.11555H6.63662C4.73912 5.11555 3.44662 5.54638 2.66745 6.40805C1.75995 7.41638 1.78745 8.77305 1.87912 9.69888L1.88829 9.76305L1.95741 10.4888C1.97167 10.6386 2.05247 10.774 2.17841 10.8563C2.39977 11.001 2.75492 11.2294 2.96995 11.3489C3.09829 11.4314 3.23579 11.5047 3.37329 11.578C4.94079 12.4397 6.66412 13.0172 8.41495 13.3014C8.49745 14.163 8.87329 15.1714 10.8808 15.1714C12.8883 15.1714 13.2825 14.1722 13.3466 13.283C15.2166 12.9805 17.0225 12.3297 18.6541 11.3764C18.7091 11.3489 18.7458 11.3214 18.7916 11.2939C19.1501 11.0913 19.5218 10.8423 19.8617 10.5976C19.9748 10.5162 20.047 10.3901 20.0624 10.2516L20.075 10.1389L20.1208 9.70805C20.13 9.65305 20.13 9.60721 20.1391 9.54305C20.2125 8.61721 20.1941 7.35221 19.3325 6.39888ZM11.9991 12.678C11.9991 13.6497 11.9991 13.7964 10.8716 13.7964C9.74412 13.7964 9.74412 13.6222 9.74412 12.6872V11.5322H11.9991V12.678ZM8.16745 5.10638V5.06971C8.16745 3.51138 8.16745 2.93388 10.3033 2.93388H11.6966C13.8325 2.93388 13.8325 3.52055 13.8325 5.06971V5.11555H8.16745V5.10638Z" fill="#808B97"/>
<path id="Vector_2" d="M19.0675 12.6206C19.4213 12.4528 19.8277 12.7336 19.7923 13.1236L19.47 16.6735C19.2775 18.5068 18.5259 20.3768 14.4925 20.3768H7.50752C3.47419 20.3768 2.72252 18.5068 2.53002 16.6827L2.22431 13.3198C2.18927 12.9344 2.58643 12.6539 2.93925 12.8131C3.99052 13.2873 5.84697 14.0906 7.0148 14.4005C7.17897 14.444 7.31188 14.5617 7.38493 14.7151C7.94556 15.8918 9.14841 16.5177 10.8809 16.5177C12.5962 16.5177 13.814 15.8677 14.3766 14.6878C14.4498 14.5343 14.5827 14.4167 14.747 14.3729C15.9878 14.0419 17.9666 13.1429 19.0675 12.6206Z" fill="#808B97"/>
</g>
</g>
</svg>
