<svg width="20" height="20" viewBox="0 0 20 20" fill="none" xmlns="http://www.w3.org/2000/svg">
<path d="M14.9988 4.9974C14.4905 4.9974 14.0238 4.70573 13.7905 4.25573L13.1905 3.0474C12.8072 2.28906 11.8072 1.66406 10.9572 1.66406H9.04884C8.1905 1.66406 7.1905 2.28906 6.80717 3.0474L6.20717 4.25573C5.97384 4.70573 5.50717 4.9974 4.99884 4.9974C3.1905 4.9974 1.75717 6.52239 1.87384 8.32239L2.30717 15.2057C2.40717 16.9224 3.33217 18.3307 5.63217 18.3307H14.3655C16.6655 18.3307 17.5822 16.9224 17.6905 15.2057L18.1238 8.32239C18.2405 6.52239 16.8072 4.9974 14.9988 4.9974ZM8.74884 6.03906H11.2488C11.5905 6.03906 11.8738 6.32239 11.8738 6.66406C11.8738 7.00573 11.5905 7.28906 11.2488 7.28906H8.74884C8.40717 7.28906 8.12384 7.00573 8.12384 6.66406C8.12384 6.32239 8.40717 6.03906 8.74884 6.03906ZM9.99884 15.0974C8.44884 15.0974 7.18217 13.8391 7.18217 12.2807C7.18217 10.7224 8.4405 9.46406 9.99884 9.46406C11.5572 9.46406 12.8155 10.7224 12.8155 12.2807C12.8155 13.8391 11.5488 15.0974 9.99884 15.0974Z" fill="#5465FF"/>
</svg>
