<svg width="26" height="26" viewBox="0 0 26 26" fill="none" xmlns="http://www.w3.org/2000/svg">
<g id="vuesax/bold/shopping-cart">
<g id="shopping-cart">
<path id="Vector" d="M17.6048 24.375C18.6519 24.375 19.5007 23.5262 19.5007 22.4791C19.5007 21.4321 18.6519 20.5833 17.6048 20.5833C16.5578 20.5833 15.709 21.4321 15.709 22.4791C15.709 23.5262 16.5578 24.375 17.6048 24.375Z" fill="white"/>
<path id="Vector_2" d="M8.93685 24.375C9.98389 24.375 10.8327 23.5262 10.8327 22.4791C10.8327 21.4321 9.98389 20.5833 8.93685 20.5833C7.88981 20.5833 7.04102 21.4321 7.04102 22.4791C7.04102 23.5262 7.88981 24.375 8.93685 24.375Z" fill="white"/>
<path id="Vector_3" d="M5.24268 4.26835L5.02602 6.92252C4.98268 7.43169 5.38352 7.85419 5.89268 7.85419H22.4785C22.9335 7.85419 23.3127 7.50752 23.3452 7.05252C23.486 5.13502 22.0235 3.57502 20.106 3.57502H6.79185C6.68352 3.09835 6.46685 2.64335 6.13102 2.26419C5.58935 1.69002 4.83102 1.35419 4.05102 1.35419H2.16602C1.72185 1.35419 1.35352 1.72252 1.35352 2.16669C1.35352 2.61085 1.72185 2.97919 2.16602 2.97919H4.05102C4.38685 2.97919 4.70102 3.12002 4.92852 3.35835C5.15602 3.60752 5.26435 3.93252 5.24268 4.26835Z" fill="white"/>
<path id="Vector_4" d="M22.2199 9.47919H5.60154C5.14654 9.47919 4.77821 9.82585 4.73487 10.27L4.34488 14.9825C4.19321 16.835 5.64488 18.4167 7.49738 18.4167H19.544C21.169 18.4167 22.599 17.0842 22.7182 15.4592L23.0757 10.4C23.119 9.90169 22.729 9.47919 22.2199 9.47919Z" fill="white"/>
</g>
</g>
</svg>
