<svg width="20" height="20" viewBox="0 0 20 20" fill="none" xmlns="http://www.w3.org/2000/svg">
<path fill-rule="evenodd" clip-rule="evenodd" d="M3.25 3C2.65326 3 2.08097 3.24583 1.65901 3.68342C1.23705 4.121 1 4.71449 1 5.33333V10C1 10.6188 1.23705 11.2123 1.65901 11.6499C2.08097 12.0875 2.65326 12.3333 3.25 12.3333V5.33333H14.5C14.5 4.71449 14.2629 4.121 13.841 3.68342C13.419 3.24583 12.8467 3 12.25 3H3.25ZM5.5 10C5.5 9.38116 5.73705 8.78767 6.15901 8.35008C6.58097 7.9125 7.15326 7.66667 7.75 7.66667H16.75C17.3467 7.66667 17.919 7.9125 18.341 8.35008C18.7629 8.78767 19 9.38116 19 10V14.6667C19 15.2855 18.7629 15.879 18.341 16.3166C17.919 16.7542 17.3467 17 16.75 17H7.75C7.15326 17 6.58097 16.7542 6.15901 16.3166C5.73705 15.879 5.5 15.2855 5.5 14.6667V10ZM12.25 14.6667C12.8467 14.6667 13.419 14.4208 13.841 13.9832C14.2629 13.5457 14.5 12.9522 14.5 12.3333C14.5 11.7145 14.2629 11.121 13.841 10.6834C13.419 10.2458 12.8467 10 12.25 10C11.6533 10 11.081 10.2458 10.659 10.6834C10.2371 11.121 10 11.7145 10 12.3333C10 12.9522 10.2371 13.5457 10.659 13.9832C11.081 14.4208 11.6533 14.6667 12.25 14.6667Z" fill="#00162E"/>
</svg>
