<svg width="16" height="16" viewBox="0 0 16 16" fill="none" xmlns="http://www.w3.org/2000/svg">
<path d="M12.3136 11.173L12.5736 13.2708C12.6402 13.8218 12.0469 14.2068 11.5736 13.9214L8.78022 12.2684C8.47356 12.2684 8.17356 12.2485 7.88023 12.2086C8.37356 11.6311 8.66689 10.9008 8.66689 10.1109C8.66689 8.22552 7.02689 6.69869 5.00022 6.69869C4.22689 6.69869 3.51356 6.91775 2.92023 7.30278C2.90023 7.13682 2.89355 6.97085 2.89355 6.79825C2.89355 3.77773 5.52689 1.32812 8.78022 1.32812C12.0336 1.32812 14.6669 3.77773 14.6669 6.79825C14.6669 8.59064 13.7402 10.1773 12.3136 11.173Z" stroke="#5465FF" stroke-width="1.2" stroke-linecap="round" stroke-linejoin="round"/>
<path d="M8.66634 10.1094C8.66634 10.8994 8.37301 11.6297 7.87968 12.2072C7.21968 13.0038 6.17301 13.515 4.99967 13.515L3.25967 14.5439C2.96634 14.7232 2.59301 14.4776 2.63301 14.139L2.79967 12.8312C1.90634 12.2139 1.33301 11.2247 1.33301 10.1094C1.33301 8.94105 1.95968 7.91209 2.91968 7.30135C3.51301 6.91632 4.22634 6.69727 4.99967 6.69727C7.02634 6.69727 8.66634 8.22409 8.66634 10.1094Z" stroke="#5465FF" stroke-width="1.2" stroke-linecap="round" stroke-linejoin="round"/>
</svg>
