<svg width="26" height="26" viewBox="0 0 26 26" fill="none" xmlns="http://www.w3.org/2000/svg">
<path d="M17.3587 14.7217V18.7723L8.64062 20.2913V14.913" stroke="#00162E" stroke-width="1.2" stroke-miterlimit="22.9256" stroke-linecap="round" stroke-linejoin="round"/>
<path d="M16.5605 3.61065L18.0428 1L20.6301 2.51899L19.1478 5.12959" stroke="#00162E" stroke-width="1.2" stroke-miterlimit="22.9256" stroke-linecap="round" stroke-linejoin="round"/>
<path d="M1 14.7217H25" stroke="#00162E" stroke-width="1.2" stroke-miterlimit="22.9256" stroke-linecap="round" stroke-linejoin="round"/>
<path d="M24.0542 14.7217L23.277 23.1635C23.1808 24.2082 22.3257 25.0002 21.2938 25.0002H4.70473C3.67273 25.0002 2.8175 24.2079 2.72155 23.163L1.89551 14.8349" stroke="#00162E" stroke-width="1.2" stroke-miterlimit="22.9256" stroke-linecap="round" stroke-linejoin="round"/>
<path d="M14.793 14.4483C14.793 9.74021 14.793 11.4317 14.793 6.72364L16.5606 3.61035L19.1479 5.12934L18.2441 6.7213L19.2973 7.25069C20.5327 7.87168 21.266 9.07221 21.266 10.4736V14.7213" stroke="#00162E" stroke-width="1.2" stroke-miterlimit="22.9256" stroke-linecap="round" stroke-linejoin="round"/>
<path d="M5.1329 14.7213V11.0758L3.61914 8.1709" stroke="#00162E" stroke-width="1.2" stroke-miterlimit="22.9256" stroke-linecap="round" stroke-linejoin="round"/>
<path d="M9.66371 8.03809L8.12012 11.0758V14.5818" stroke="#00162E" stroke-width="1.2" stroke-miterlimit="22.9256" stroke-linecap="round" stroke-linejoin="round"/>
<path fill-rule="evenodd" clip-rule="evenodd" d="M2.21876 5H11.0343C11.7046 5 12.2531 5.55773 12.2531 6.23933V8.03793H1V6.23933C1 5.55768 1.54842 5 2.21876 5Z" stroke="#00162E" stroke-width="1.2" stroke-miterlimit="22.9256" stroke-linecap="round" stroke-linejoin="round"/>
</svg>
