<svg width="4" height="14" viewBox="0 0 4 14" fill="none" xmlns="http://www.w3.org/2000/svg">
<path d="M1.97928 13.144C1.49928 13.144 1.09928 12.992 0.779281 12.688C0.475281 12.368 0.323281 11.992 0.323281 11.56C0.323281 11.112 0.475281 10.736 0.779281 10.432C1.09928 10.112 1.49928 9.952 1.97928 9.952C2.45928 9.952 2.85128 10.112 3.15528 10.432C3.45928 10.736 3.61128 11.112 3.61128 11.56C3.61128 11.992 3.45928 12.368 3.15528 12.688C2.85128 12.992 2.45928 13.144 1.97928 13.144ZM1.97928 4C1.49928 4 1.09928 3.848 0.779281 3.544C0.475281 3.224 0.323281 2.848 0.323281 2.416C0.323281 1.968 0.475281 1.592 0.779281 1.288C1.09928 0.967999 1.49928 0.808 1.97928 0.808C2.45928 0.808 2.85128 0.967999 3.15528 1.288C3.45928 1.592 3.61128 1.968 3.61128 2.416C3.61128 2.848 3.45928 3.224 3.15528 3.544C2.85128 3.848 2.45928 4 1.97928 4Z" fill="#5465FF"/>
</svg>
