<svg width="40" height="40" viewBox="0 0 40 40" fill="none" xmlns="http://www.w3.org/2000/svg">
<path d="M26.3002 3.3335H13.7002C7.40016 3.3335 5.8335 5.01683 5.8335 11.7335V30.5002C5.8335 34.9335 8.26683 35.9835 11.2168 32.8168L11.2335 32.8002C12.6002 31.3502 14.6835 31.4668 15.8668 33.0502L17.5502 35.3002C18.9002 37.0835 21.0835 37.0835 22.4335 35.3002L24.1168 33.0502C25.3168 31.4502 27.4002 31.3335 28.7668 32.8002C31.7335 35.9668 34.1502 34.9168 34.1502 30.4835V11.7335C34.1668 5.01683 32.6002 3.3335 26.3002 3.3335ZM15.0002 11.6668C15.9168 11.6668 16.6668 12.4168 16.6668 13.3335C16.6668 14.2502 15.9335 15.0002 15.0002 15.0002C14.0668 15.0002 13.3335 14.2502 13.3335 13.3335C13.3335 12.4168 14.0668 11.6668 15.0002 11.6668ZM25.0002 23.3335C24.0668 23.3335 23.3335 22.5835 23.3335 21.6668C23.3335 20.7502 24.0835 20.0002 25.0002 20.0002C25.9168 20.0002 26.6668 20.7502 26.6668 21.6668C26.6668 22.5835 25.9335 23.3335 25.0002 23.3335ZM26.5002 12.6502L15.2835 23.8668C15.0335 24.1168 14.7168 24.2335 14.4002 24.2335C14.0835 24.2335 13.7668 24.1168 13.5168 23.8668C13.0335 23.3835 13.0335 22.5835 13.5168 22.1002L24.7335 10.8835C25.2168 10.4002 26.0168 10.4002 26.5002 10.8835C26.9835 11.3668 26.9835 12.1668 26.5002 12.6502Z" fill="#292D32"/>
</svg>
