<svg width="22" height="22" viewBox="0 0 22 22" fill="none" xmlns="http://www.w3.org/2000/svg">
<path d="M12.1137 17.6614C12.1335 15.6421 11.6215 14.0001 10.9703 13.9937C10.3191 13.9873 9.77515 15.6191 9.75544 17.6384C9.73568 19.6577 10.2476 21.2998 10.8988 21.3061C11.5501 21.3125 12.094 19.6807 12.1137 17.6614Z" fill="white"/>
<path d="M8.33636 17.2027C9.44477 15.5147 9.90197 13.8565 9.3576 13.4991C8.81319 13.1416 7.47335 14.2202 6.36499 15.9083C5.25658 17.5963 4.79938 19.2544 5.34375 19.6119C5.88816 19.9694 7.22796 18.8908 8.33636 17.2027Z" fill="white"/>
<path d="M5.40254 14.7807C7.24763 13.9601 8.52878 12.8124 8.26408 12.2173C7.99942 11.6222 6.28914 11.8052 4.44404 12.6259C2.59896 13.4466 1.3178 14.5943 1.58248 15.1894C1.84716 15.7844 3.55746 15.6015 5.40254 14.7807Z" fill="white"/>
<path d="M8.04275 10.5486C8.14183 9.90496 6.60417 9.13412 4.60833 8.82691C2.61243 8.51971 0.914148 8.7925 0.815078 9.43618C0.716007 10.0799 2.25367 10.8506 4.24954 11.1579C6.24539 11.4651 7.9437 11.1923 8.04275 10.5486Z" fill="white"/>
<path d="M8.75925 9.01522C9.19054 8.52726 8.31353 7.04759 6.80041 5.71029C5.2873 4.37301 3.71105 3.68452 3.27977 4.1725C2.84849 4.6605 3.7255 6.14017 5.23863 7.47747C6.75175 8.81476 8.328 9.50323 8.75925 9.01522Z" fill="white"/>
<path d="M10.1867 8.11924C10.8134 7.94192 10.8756 6.22297 10.3258 4.2799C9.77598 2.33682 8.82223 0.905395 8.19559 1.08272C7.56894 1.26004 7.50668 2.97897 8.0565 4.92206C8.60633 6.8651 9.56007 8.29656 10.1867 8.11924Z" fill="white"/>
<path d="M14.0621 4.98242C14.6502 3.05056 14.6218 1.33074 13.9988 1.14109C13.3758 0.951445 12.394 2.36378 11.8059 4.29564C11.2179 6.22749 11.2462 7.94732 11.8693 8.13696C12.4923 8.3266 13.4741 6.91429 14.0621 4.98242Z" fill="white"/>
<path d="M16.8302 7.59267C18.3692 6.28521 19.275 4.82296 18.8533 4.32665C18.4316 3.83033 16.8422 4.4879 15.3033 5.79531C13.7643 7.10277 12.8585 8.56502 13.2802 9.06134C13.7018 9.55766 15.2912 8.90013 16.8302 7.59267Z" fill="white"/>
<path d="M17.7458 11.287C19.7474 11.0192 21.2999 10.2789 21.2136 9.63336C21.1272 8.98788 19.4346 8.68169 17.4331 8.94943C15.4316 9.21721 13.879 9.95756 13.9653 10.6031C14.0517 11.2486 15.7443 11.5548 17.7458 11.287Z" fill="white"/>
<path d="M20.3277 15.3743C20.6041 14.7846 19.3458 13.6118 17.5173 12.7549C15.6888 11.898 13.9824 11.6813 13.706 12.271C13.4297 12.8608 14.6879 14.0335 16.5165 14.8904C18.345 15.7473 20.0514 15.964 20.3277 15.3743Z" fill="white"/>
<path d="M16.4817 19.7251C17.033 19.3784 16.6086 17.7115 15.5337 16.002C14.4588 14.2925 13.1405 13.1877 12.5892 13.5343C12.0379 13.8809 12.4623 15.5478 13.5372 17.2574C14.6121 18.9669 15.9304 20.0717 16.4817 19.7251Z" fill="white"/>
</svg>
