<svg width="18" height="18" viewBox="0 0 18 18" fill="none" xmlns="http://www.w3.org/2000/svg">
<path d="M14.4747 5.9406V9.80312C14.4747 12.1131 13.1547 13.1031 11.1747 13.1031H4.58222C4.24472 13.1031 3.92222 13.0731 3.62222 13.0056C3.43472 12.9756 3.25473 12.9231 3.08973 12.8631C1.96473 12.4431 1.28223 11.4681 1.28223 9.80312V5.9406C1.28223 3.6306 2.60222 2.64062 4.58222 2.64062H11.1747C12.8547 2.64062 14.0622 3.35312 14.3847 4.98062C14.4372 5.28062 14.4747 5.5881 14.4747 5.9406Z" stroke="#00162E" stroke-width="1.2" stroke-miterlimit="10" stroke-linecap="round" stroke-linejoin="round"/>
<path d="M16.7255 8.19044V12.053C16.7255 14.363 15.4056 15.3529 13.4256 15.3529H6.83305C6.27805 15.3529 5.77555 15.278 5.34055 15.113C4.44805 14.783 3.84055 14.1005 3.62305 13.0055C3.92305 13.073 4.24555 13.1029 4.58305 13.1029H11.1756C13.1556 13.1029 14.4755 12.113 14.4755 9.80296V5.94044C14.4755 5.58794 14.4456 5.27297 14.3856 4.98047C15.8106 5.28047 16.7255 6.28544 16.7255 8.19044Z" stroke="#00162E" stroke-width="1.2" stroke-miterlimit="10" stroke-linecap="round" stroke-linejoin="round"/>
<path d="M7.87357 9.85455C8.96709 9.85455 9.85358 8.96807 9.85358 7.87454C9.85358 6.78102 8.96709 5.89453 7.87357 5.89453C6.78004 5.89453 5.89355 6.78102 5.89355 7.87454C5.89355 8.96807 6.78004 9.85455 7.87357 9.85455Z" stroke="#00162E" stroke-width="1.2" stroke-miterlimit="10" stroke-linecap="round" stroke-linejoin="round"/>
<path d="M3.58496 6.22656V9.52658" stroke="#00162E" stroke-width="1.2" stroke-miterlimit="10" stroke-linecap="round" stroke-linejoin="round"/>
<path d="M12.166 6.22656V9.52658" stroke="#00162E" stroke-width="1.2" stroke-miterlimit="10" stroke-linecap="round" stroke-linejoin="round"/>
</svg>
