<svg width="26" height="26" viewBox="0 0 26 26" fill="none" xmlns="http://www.w3.org/2000/svg">
<path d="M7.44095 18.5586L4.17578 21.8238" stroke="#00162E" stroke-width="1.2" stroke-miterlimit="10" stroke-linecap="round" stroke-linejoin="round"/>
<path d="M8.30078 4.78125L11.5324 8.01291" stroke="#00162E" stroke-width="1.2" stroke-miterlimit="10" stroke-linecap="round" stroke-linejoin="round"/>
<path d="M17.9873 14.4756L21.219 17.7072" stroke="#00162E" stroke-width="1.2" stroke-miterlimit="10" stroke-linecap="round" stroke-linejoin="round"/>
<path d="M17.1361 21.7903C13.5666 25.3599 7.74554 25.3935 4.176 21.824C0.606473 18.2545 0.64013 12.4334 4.20966 8.86384L11.5661 1.51562L14.7977 4.74723L7.44127 12.0955C5.6565 13.8802 5.6565 16.7739 7.44127 18.5587C9.22604 20.3435 12.1197 20.3435 13.9045 18.5587L21.2527 11.2105L24.4844 14.4421L17.1361 21.7903Z" stroke="#00162E" stroke-width="1.2" stroke-miterlimit="10" stroke-linecap="round" stroke-linejoin="round"/>
<path d="M21.0057 5.37598L17.5747 6.90091L19.0996 8.4258L16.0498 9.9507" stroke="#00162E" stroke-width="1.2" stroke-miterlimit="10" stroke-linecap="round" stroke-linejoin="round"/>
</svg>
