<svg width="24" height="24" viewBox="0 0 24 24" fill="none" xmlns="http://www.w3.org/2000/svg">
<path d="M12 22C6.477 22 2 17.523 2 12C2 6.477 6.477 2 12 2C17.523 2 22 6.477 22 12C22 17.523 17.523 22 12 22Z" stroke="#808B97" stroke-width="1.2" stroke-linecap="round" stroke-linejoin="round"/>
<path d="M15.978 14.3506C16.0919 14.3232 16.2111 14.3305 16.3211 14.3713C16.431 14.4121 16.5268 14.4848 16.5967 14.5804C16.6666 14.676 16.7075 14.7904 16.7144 14.9094C16.7213 15.0283 16.6939 15.1468 16.6356 15.2501C16.1617 16.0865 15.4799 16.781 14.6588 17.2638C13.8376 17.7465 12.9061 18.0004 11.958 18C11.0099 18.0004 10.0784 17.7465 9.25724 17.2638C8.4361 16.781 7.75429 16.0865 7.28044 15.2501C7.22209 15.1468 7.19468 15.0283 7.20158 14.9094C7.20848 14.7904 7.2494 14.676 7.31929 14.5804C7.38917 14.4848 7.48498 14.4121 7.59492 14.3713C7.70486 14.3305 7.82413 14.3232 7.93804 14.3506H7.94404L7.96444 14.3567L8.04484 14.375L8.34723 14.4422C8.60523 14.4984 8.96523 14.5742 9.37563 14.6488C10.2072 14.8003 11.202 14.9445 11.958 14.9445C12.714 14.9445 13.71 14.8003 14.5404 14.6488C14.9858 14.5671 15.4295 14.4759 15.8712 14.375L15.9516 14.3567L15.972 14.3518L15.978 14.3493V14.3506ZM8.10724 7.69211C9.02283 5.95173 12.9312 7.54545 9.24963 11.8891C3.85448 9.93849 6.42965 6.63615 8.10724 7.69211ZM15.8928 7.69211C17.5703 6.63615 20.1455 9.93849 14.7504 11.8891C11.07 7.54545 14.9784 5.95173 15.8928 7.69211Z" fill="#808B97"/>
</svg>
