<svg width="24" height="24" viewBox="0 0 24 24" fill="none" xmlns="http://www.w3.org/2000/svg">
<mask id="mask0_1439_4147" style="mask-type:luminance" maskUnits="userSpaceOnUse" x="2" y="2" width="20" height="20">
<path d="M2 2H22V22H2V2Z" fill="white"/>
</mask>
<g mask="url(#mask0_1439_4147)">
<path d="M21.4141 12C21.4141 17.1993 17.1993 21.4141 12 21.4141C6.80074 21.4141 2.58594 17.1993 2.58594 12C2.58594 6.80074 6.80074 2.58594 12 2.58594C17.1993 2.58594 21.4141 6.80074 21.4141 12Z" stroke="#5465FF" stroke-width="1.2" stroke-miterlimit="10" stroke-linecap="round" stroke-linejoin="round"/>
<path d="M14.3438 12C14.3438 13.2944 13.2944 14.3438 12 14.3438C10.7056 14.3438 9.65625 13.2944 9.65625 12C9.65625 10.7056 10.7056 9.65625 12 9.65625C13.2944 9.65625 14.3438 10.7056 14.3438 12Z" stroke="#5465FF" stroke-width="1.2" stroke-miterlimit="10" stroke-linecap="round" stroke-linejoin="round"/>
<path d="M13.2759 10.0356C14.2515 8.80889 14.1734 7.01932 13.0386 5.88455C11.8182 4.66416 9.83957 4.66416 8.61922 5.88455C8.11156 6.39221 8.31566 7.2565 8.99668 7.4835C10.0881 7.84732 10.9514 8.68037 11.3674 9.7458" stroke="#5465FF" stroke-width="1.2" stroke-miterlimit="10" stroke-linecap="round" stroke-linejoin="round"/>
<path d="M13.9648 13.275C15.1916 14.2506 16.9811 14.1725 18.1159 13.0377C19.3363 11.8173 19.3363 9.83867 18.1159 8.61828C17.6083 8.11066 16.7439 8.31473 16.517 8.99574C16.1532 10.0872 15.3201 10.9505 14.2546 11.3665" stroke="#5465FF" stroke-width="1.2" stroke-miterlimit="10" stroke-linecap="round" stroke-linejoin="round"/>
<path d="M12.5859 12C12.5859 12.3236 12.3236 12.5859 12 12.5859C11.6764 12.5859 11.4141 12.3236 11.4141 12C11.4141 11.6764 11.6764 11.4141 12 11.4141C12.3236 11.4141 12.5859 11.6764 12.5859 12Z" fill="#5465FF"/>
<path d="M10.724 13.9649C9.74846 15.1917 9.82654 16.9812 10.9613 18.116C12.1817 19.3363 14.1604 19.3363 15.3807 18.116C15.8884 17.6083 15.6843 16.744 15.0033 16.517C13.9119 16.1532 13.0485 15.3202 12.6325 14.2547" stroke="#5465FF" stroke-width="1.2" stroke-miterlimit="10" stroke-linecap="round" stroke-linejoin="round"/>
<path d="M10.0351 10.7246C8.80838 9.749 7.01885 9.82709 5.88404 10.9619C4.66365 12.1823 4.66365 14.1609 5.88404 15.3813C6.39166 15.8889 7.256 15.6849 7.48303 15.0038C7.84682 13.9124 8.67986 13.0491 9.74529 12.6331" stroke="#5465FF" stroke-width="1.2" stroke-miterlimit="10" stroke-linecap="round" stroke-linejoin="round"/>
</g>
</svg>
