<svg width="18" height="18" viewBox="0 0 18 18" fill="none" xmlns="http://www.w3.org/2000/svg">
<path d="M13.125 16.5L13.125 12" stroke="#00162E" stroke-width="1.2" stroke-miterlimit="10" stroke-linecap="round" stroke-linejoin="round"/>
<path d="M13.125 4.5L13.125 1.5" stroke="#00162E" stroke-width="1.2" stroke-miterlimit="10" stroke-linecap="round" stroke-linejoin="round"/>
<path d="M10.5 7.5C10.5 8.94975 11.6753 10.125 13.125 10.125C14.5747 10.125 15.75 8.94975 15.75 7.5C15.75 6.05025 14.5747 4.875 13.125 4.875C11.6753 4.875 10.5 6.05025 10.5 7.5Z" stroke="#00162E" stroke-width="1.2" stroke-miterlimit="10" stroke-linecap="round" stroke-linejoin="round"/>
<path d="M4.875 16.5L4.875 13.5" stroke="#00162E" stroke-width="1.2" stroke-miterlimit="10" stroke-linecap="round" stroke-linejoin="round"/>
<path d="M4.875 6L4.875 1.5" stroke="#00162E" stroke-width="1.2" stroke-miterlimit="10" stroke-linecap="round" stroke-linejoin="round"/>
<path d="M2.25 10.5C2.25 11.9497 3.42525 13.125 4.875 13.125C6.32475 13.125 7.5 11.9497 7.5 10.5C7.5 9.05025 6.32475 7.875 4.875 7.875C3.42525 7.875 2.25 9.05025 2.25 10.5Z" stroke="#00162E" stroke-width="1.2" stroke-miterlimit="10" stroke-linecap="round" stroke-linejoin="round"/>
</svg>
