<svg width="20" height="20" viewBox="0 0 20 20" fill="none" xmlns="http://www.w3.org/2000/svg">
<path d="M2.14967 15.8414L2.13301 15.8581C1.90801 15.3664 1.76634 14.8081 1.70801 14.1914C1.76634 14.7997 1.92467 15.3497 2.14967 15.8414Z" fill="#5465FF"/>
<path d="M7.49994 8.65026C8.5953 8.65026 9.48327 7.76229 9.48327 6.66693C9.48327 5.57156 8.5953 4.68359 7.49994 4.68359C6.40457 4.68359 5.5166 5.57156 5.5166 6.66693C5.5166 7.76229 6.40457 8.65026 7.49994 8.65026Z" fill="#5465FF"/>
<path d="M13.492 1.66602H6.50866C3.47533 1.66602 1.66699 3.47435 1.66699 6.50768V13.491C1.66699 14.3994 1.82533 15.191 2.13366 15.8577C2.85033 17.441 4.38366 18.3327 6.50866 18.3327H13.492C16.5253 18.3327 18.3337 16.5244 18.3337 13.491V11.5827V6.50768C18.3337 3.47435 16.5253 1.66602 13.492 1.66602ZM16.9753 10.416C16.3253 9.85768 15.2753 9.85768 14.6253 10.416L11.1587 13.391C10.5087 13.9493 9.45866 13.9493 8.80866 13.391L8.52533 13.1577C7.93366 12.641 6.99199 12.591 6.32533 13.041L3.20866 15.1327C3.02533 14.666 2.91699 14.1243 2.91699 13.491V6.50768C2.91699 4.15768 4.15866 2.91602 6.50866 2.91602H13.492C15.842 2.91602 17.0837 4.15768 17.0837 6.50768V10.5077L16.9753 10.416Z" fill="#5465FF"/>
</svg>
