<svg width="24" height="24" viewBox="0 0 24 24" fill="none" xmlns="http://www.w3.org/2000/svg">
<path d="M12 2C17.5229 2 22 6.47716 22 12C22 17.5229 17.5229 22 12 22C6.47716 22 2 17.5229 2 12C2 6.47716 6.47716 2 12 2Z" stroke="#808B97" stroke-width="1.2" stroke-linecap="round"/>
<path d="M11.9999 17.5538C14.5332 17.5538 16.6888 15.7094 17.5554 13.1094H6.44434C7.311 15.7094 9.46656 17.5538 11.9999 17.5538Z" fill="#808B97"/>
<path d="M8.66678 10.888C9.28042 10.888 9.77789 10.1418 9.77789 9.22135C9.77789 8.30088 9.28042 7.55469 8.66678 7.55469C8.05313 7.55469 7.55566 8.30088 7.55566 9.22135C7.55566 10.1418 8.05313 10.888 8.66678 10.888Z" fill="#808B97"/>
<path d="M15.3333 10.888C15.9469 10.888 16.4444 10.1418 16.4444 9.22135C16.4444 8.30088 15.9469 7.55469 15.3333 7.55469C14.7196 7.55469 14.2222 8.30088 14.2222 9.22135C14.2222 10.1418 14.7196 10.888 15.3333 10.888Z" fill="#808B97"/>
</svg>
