<svg width="20" height="20" viewBox="0 0 20 20" fill="none" xmlns="http://www.w3.org/2000/svg">
<path d="M4.16699 8.33317H5.83366C7.50033 8.33317 8.33366 7.49984 8.33366 5.83317V4.1665C8.33366 2.49984 7.50033 1.6665 5.83366 1.6665H4.16699C2.50033 1.6665 1.66699 2.49984 1.66699 4.1665V5.83317C1.66699 7.49984 2.50033 8.33317 4.16699 8.33317Z" stroke="#00162E" stroke-width="1.2" stroke-miterlimit="10" stroke-linecap="round" stroke-linejoin="round"/>
<path d="M14.167 8.33317H15.8337C17.5003 8.33317 18.3337 7.49984 18.3337 5.83317V4.1665C18.3337 2.49984 17.5003 1.6665 15.8337 1.6665H14.167C12.5003 1.6665 11.667 2.49984 11.667 4.1665V5.83317C11.667 7.49984 12.5003 8.33317 14.167 8.33317Z" stroke="#00162E" stroke-width="1.2" stroke-miterlimit="10" stroke-linecap="round" stroke-linejoin="round"/>
<path d="M14.167 18.3332H15.8337C17.5003 18.3332 18.3337 17.4998 18.3337 15.8332V14.1665C18.3337 12.4998 17.5003 11.6665 15.8337 11.6665H14.167C12.5003 11.6665 11.667 12.4998 11.667 14.1665V15.8332C11.667 17.4998 12.5003 18.3332 14.167 18.3332Z" stroke="#00162E" stroke-width="1.2" stroke-miterlimit="10" stroke-linecap="round" stroke-linejoin="round"/>
<path d="M4.16699 18.3332H5.83366C7.50033 18.3332 8.33366 17.4998 8.33366 15.8332V14.1665C8.33366 12.4998 7.50033 11.6665 5.83366 11.6665H4.16699C2.50033 11.6665 1.66699 12.4998 1.66699 14.1665V15.8332C1.66699 17.4998 2.50033 18.3332 4.16699 18.3332Z" stroke="#00162E" stroke-width="1.2" stroke-miterlimit="10" stroke-linecap="round" stroke-linejoin="round"/>
</svg>
