<svg width="99" height="99" viewBox="0 0 99 99" fill="none" xmlns="http://www.w3.org/2000/svg">
<path d="M57.1016 11.8544L64.8447 27.4687C65.9006 29.6422 68.7163 31.7271 71.0921 32.1263L85.1265 34.4773C94.1015 35.9855 96.2133 42.5506 89.746 49.027L78.8352 60.0279C76.9874 61.891 75.9755 65.4841 76.5474 68.0569L79.6711 81.675C82.1348 92.4542 76.4595 96.6239 67.0005 90.9903L53.846 83.1388C51.4702 81.7193 47.5547 81.7193 45.1349 83.1388L31.9804 90.9903C22.5654 96.6239 16.846 92.4098 19.3098 81.675L22.4334 68.0569C23.0054 65.4841 21.9935 61.891 20.1457 60.0279L9.23489 49.027C2.8116 42.5506 4.87937 35.9855 13.8544 34.4773L27.8888 32.1263C30.2206 31.7271 33.0363 29.6422 34.0921 27.4687L41.8353 11.8544C46.0588 3.38187 52.9221 3.38187 57.1016 11.8544Z" stroke="#5465FF" stroke-width="8.25" stroke-linecap="round" stroke-linejoin="round"/>
<g clip-path="url(#clip0_3486_3684)">
<path d="M57.1016 11.8544L64.8447 27.4687C65.9006 29.6422 68.7163 31.7271 71.0921 32.1263L85.1265 34.4773C94.1015 35.9855 96.2133 42.5506 89.746 49.027L78.8352 60.0279C76.9874 61.891 75.9755 65.4841 76.5474 68.0569L79.6711 81.675C82.1348 92.4542 76.4595 96.6239 67.0005 90.9903L53.846 83.1388C51.4702 81.7193 47.5547 81.7193 45.1349 83.1388L31.9804 90.9903C22.5654 96.6239 16.846 92.4098 19.3098 81.675L22.4334 68.0569C23.0054 65.4841 21.9935 61.891 20.1457 60.0279L9.23489 49.027C2.8116 42.5506 4.87937 35.9855 13.8544 34.4773L27.8888 32.1263C30.2206 31.7271 33.0363 29.6422 34.0921 27.4687L41.8353 11.8544C46.0588 3.38187 52.9221 3.38187 57.1016 11.8544Z" fill="#5465FF"/>
</g>
<defs>
<clipPath id="clip0_3486_3684">
<rect width="44" height="88" fill="white" transform="translate(5.5 5.5)"/>
</clipPath>
</defs>
</svg>
