<svg width="18" height="18" viewBox="0 0 18 18" fill="none" xmlns="http://www.w3.org/2000/svg">
<path d="M13.5 14.1453H12.93C12.33 14.1453 11.76 14.3778 11.34 14.7978L10.0575 16.0653C9.4725 16.6428 8.52 16.6428 7.935 16.0653L6.6525 14.7978C6.2325 14.3778 5.655 14.1453 5.0625 14.1453H4.5C3.255 14.1453 2.25 13.1478 2.25 11.9178V3.73529C2.25 2.50529 3.255 1.50781 4.5 1.50781H13.5C14.745 1.50781 15.75 2.50529 15.75 3.73529V11.9178C15.75 13.1403 14.745 14.1453 13.5 14.1453Z" stroke="#00162E" stroke-width="1.2" stroke-miterlimit="10" stroke-linecap="round" stroke-linejoin="round"/>
<path d="M5.25 6.87106C5.25 6.17356 5.82 5.60352 6.5175 5.60352C7.215 5.60352 7.785 6.17356 7.785 6.87106C7.785 8.28106 5.7825 8.43106 5.34 9.77356C5.25 10.0511 5.4825 10.3286 5.775 10.3286H7.785" stroke="#00162E" stroke-width="1.2" stroke-linecap="round" stroke-linejoin="round"/>
<path d="M12.0298 10.3206V6.03816C12.0298 5.84316 11.9023 5.67062 11.7148 5.61812C11.5273 5.56562 11.3248 5.64062 11.2198 5.80562C10.6798 6.67562 10.0948 7.66563 9.58482 8.53563C9.50232 8.67813 9.50232 8.86563 9.58482 9.00813C9.66732 9.15063 9.82483 9.24059 9.99733 9.24059H12.7498" stroke="#00162E" stroke-width="1.2" stroke-linecap="round" stroke-linejoin="round"/>
</svg>
