<svg width="27" height="21" viewBox="0 0 27 21" fill="none" xmlns="http://www.w3.org/2000/svg">
<g clip-path="url(#clip0_1479_5581)">
<path d="M0 0.0625H26.6667V6.72917H0V0.0625Z" fill="#FF9933"/>
<path d="M0 6.72852H26.6667V13.3952H0V6.72852Z" fill="white"/>
<path d="M0 13.3965H26.6667V20.0632H0V13.3965Z" fill="#128807"/>
<path d="M13.3327 12.7279C14.8054 12.7279 15.9993 11.534 15.9993 10.0612C15.9993 8.58844 14.8054 7.39453 13.3327 7.39453C11.8599 7.39453 10.666 8.58844 10.666 10.0612C10.666 11.534 11.8599 12.7279 13.3327 12.7279Z" fill="#000088"/>
<path d="M13.3333 12.3952C14.622 12.3952 15.6667 11.3505 15.6667 10.0618C15.6667 8.77318 14.622 7.72852 13.3333 7.72852C12.0447 7.72852 11 8.77318 11 10.0618C11 11.3505 12.0447 12.3952 13.3333 12.3952Z" fill="white"/>
<path d="M13.3329 10.529C13.5906 10.529 13.7995 10.3201 13.7995 10.0624C13.7995 9.80464 13.5906 9.5957 13.3329 9.5957C13.0751 9.5957 12.8662 9.80464 12.8662 10.0624C12.8662 10.3201 13.0751 10.529 13.3329 10.529Z" fill="#000088"/>
<path d="M15.6316 10.488C15.6973 10.4966 15.7576 10.4504 15.7662 10.3847C15.7749 10.319 15.7286 10.2587 15.6629 10.25C15.5972 10.2414 15.5369 10.2876 15.5283 10.3533C15.5196 10.4191 15.5659 10.4793 15.6316 10.488Z" fill="#000088"/>
<path d="M13.3339 12.3967L13.4139 10.9967L13.3339 10.3301L13.2539 10.9967L13.3339 12.3967Z" fill="#000088"/>
<path d="M15.4428 11.0665C15.5041 11.0918 15.5743 11.0628 15.5996 11.0015C15.625 10.9403 15.5959 10.8701 15.5347 10.8448C15.4735 10.8194 15.4033 10.8485 15.3779 10.9097C15.3525 10.9709 15.3816 11.0411 15.4428 11.0665Z" fill="#000088"/>
<path d="M12.7299 12.3158L13.1695 10.9842L13.2648 10.3195L13.015 10.9428L12.7299 12.3158Z" fill="#000088"/>
<path d="M15.1112 11.5799C15.1638 11.6202 15.2391 11.6103 15.2795 11.5577C15.3198 11.5051 15.3099 11.4298 15.2573 11.3895C15.2047 11.3491 15.1294 11.359 15.0891 11.4116C15.0487 11.4642 15.0586 11.5395 15.1112 11.5799Z" fill="#000088"/>
<path d="M12.1668 12.0856L12.9361 10.9132L13.2001 10.2959L12.7975 10.8332L12.1668 12.0856Z" fill="#000088"/>
<path d="M14.6571 11.9874C14.6974 12.04 14.7727 12.0499 14.8253 12.0095C14.8779 11.9692 14.8878 11.8939 14.8475 11.8413C14.8071 11.7887 14.7318 11.7788 14.6792 11.8191C14.6266 11.8595 14.6167 11.9348 14.6571 11.9874Z" fill="#000088"/>
<path d="M11.6831 11.7132L12.7296 10.7799L13.1445 10.2519L12.6165 10.6667L11.6831 11.7132Z" fill="#000088"/>
<path d="M14.1133 12.2633C14.1386 12.3245 14.2088 12.3536 14.27 12.3282C14.3313 12.3028 14.3603 12.2326 14.335 12.1714C14.3096 12.1102 14.2394 12.0811 14.1782 12.1065C14.117 12.1318 14.0879 12.202 14.1133 12.2633Z" fill="#000088"/>
<path d="M11.3117 11.2296L12.5642 10.5989L13.1015 10.1962L12.4842 10.4603L11.3117 11.2296Z" fill="#000088"/>
<path d="M13.518 12.3925C13.5266 12.4582 13.5869 12.5044 13.6526 12.4958C13.7183 12.4871 13.7645 12.4269 13.7559 12.3612C13.7472 12.2955 13.687 12.2492 13.6213 12.2579C13.5556 12.2665 13.5093 12.3268 13.518 12.3925Z" fill="#000088"/>
<path d="M11.0791 10.6669L12.4521 10.3818L13.0754 10.132L12.4107 10.2272L11.0791 10.6669Z" fill="#000088"/>
<path d="M12.9085 12.3591C12.8998 12.4248 12.9461 12.4851 13.0118 12.4938C13.0775 12.5024 13.1378 12.4562 13.1464 12.3905C13.1551 12.3248 13.1088 12.2645 13.0431 12.2558C12.9774 12.2472 12.9171 12.2934 12.9085 12.3591Z" fill="#000088"/>
<path d="M10.9997 10.0624L12.3997 10.1424L13.0664 10.0624L12.3997 9.98242L10.9997 10.0624Z" fill="#000088"/>
<path d="M12.3281 12.1733C12.3027 12.2345 12.3318 12.3047 12.393 12.3301C12.4542 12.3555 12.5244 12.3264 12.5498 12.2652C12.5751 12.2039 12.5461 12.1337 12.4848 12.1084C12.4236 12.083 12.3534 12.1121 12.3281 12.1733Z" fill="#000088"/>
<path d="M11.0788 9.4584L12.4103 9.89802L13.075 9.99329L12.4518 9.74347L11.0788 9.4584Z" fill="#000088"/>
<path d="M11.8166 11.8397C11.7763 11.8923 11.7862 11.9676 11.8388 12.008C11.8914 12.0483 11.9667 12.0384 12.007 11.9858C12.0474 11.9332 12.0375 11.8579 11.9849 11.8176C11.9323 11.7772 11.857 11.7871 11.8166 11.8397Z" fill="#000088"/>
<path d="M11.3118 8.89532L12.4843 9.66461L13.1016 9.92866L12.5643 9.52604L11.3118 8.89532Z" fill="#000088"/>
<path d="M11.4071 11.3866C11.3546 11.4269 11.3446 11.5022 11.385 11.5548C11.4253 11.6074 11.5007 11.6173 11.5532 11.577C11.6058 11.5366 11.6157 11.4613 11.5754 11.4087C11.535 11.3561 11.4597 11.3462 11.4071 11.3866Z" fill="#000088"/>
<path d="M11.6823 8.41162L12.6157 9.45814L13.1436 9.87297L12.7288 9.345L11.6823 8.41162Z" fill="#000088"/>
<path d="M11.1303 10.8418C11.0691 10.8671 11.04 10.9373 11.0654 10.9986C11.0907 11.0598 11.1609 11.0889 11.2221 11.0635C11.2834 11.0381 11.3124 10.9679 11.2871 10.9067C11.2617 10.8455 11.1915 10.8164 11.1303 10.8418Z" fill="#000088"/>
<path d="M12.1659 8.03928L12.7967 9.29171L13.1993 9.82906L12.9352 9.21171L12.1659 8.03928Z" fill="#000088"/>
<path d="M11.004 10.2445C10.9383 10.2532 10.892 10.3134 10.9007 10.3791C10.9093 10.4449 10.9696 10.4911 11.0353 10.4825C11.101 10.4738 11.1473 10.4135 11.1386 10.3478C11.13 10.2821 11.0697 10.2359 11.004 10.2445Z" fill="#000088"/>
<path d="M12.7296 7.80766L13.0147 9.18066L13.2645 9.80391L13.1693 9.13925L12.7296 7.80766Z" fill="#000088"/>
<path d="M11.0344 9.63702C10.9687 9.62836 10.9084 9.67462 10.8998 9.74033C10.8911 9.80603 10.9374 9.86631 11.0031 9.87496C11.0688 9.88361 11.1291 9.83736 11.1377 9.77165C11.1464 9.70594 11.1001 9.64567 11.0344 9.63702Z" fill="#000088"/>
<path d="M13.3321 7.72826L13.2521 9.12826L13.3321 9.79492L13.4121 9.12826L13.3321 7.72826Z" fill="#000088"/>
<path d="M11.2232 9.05852C11.1619 9.03316 11.0917 9.06223 11.0664 9.12346C11.041 9.18469 11.0701 9.25489 11.1313 9.28025C11.1926 9.30561 11.2627 9.27654 11.2881 9.21531C11.3135 9.15408 11.2844 9.08388 11.2232 9.05852Z" fill="#000088"/>
<path d="M13.9361 7.80922L13.4965 9.14081L13.4012 9.80547L13.6511 9.18222L13.9361 7.80922Z" fill="#000088"/>
<path d="M11.5548 8.54514C11.5022 8.50479 11.4269 8.51471 11.3866 8.56729C11.3462 8.61987 11.3561 8.6952 11.4087 8.73554C11.4613 8.77589 11.5366 8.76597 11.577 8.71339C11.6173 8.66081 11.6074 8.58548 11.5548 8.54514Z" fill="#000088"/>
<path d="M14.4992 8.03935L13.7299 9.21179L13.4659 9.82914L13.8685 9.29179L14.4992 8.03935Z" fill="#000088"/>
<path d="M12.009 8.1376C11.9686 8.08502 11.8933 8.0751 11.8407 8.11545C11.7881 8.1558 11.7782 8.23113 11.8186 8.2837C11.8589 8.33628 11.9342 8.3462 11.9868 8.30585C12.0394 8.26551 12.0493 8.19018 12.009 8.1376Z" fill="#000088"/>
<path d="M14.9829 8.41177L13.9364 9.34515L13.5216 9.87312L14.0495 9.45828L14.9829 8.41177Z" fill="#000088"/>
<path d="M12.5528 7.85979C12.5274 7.79856 12.4572 7.76948 12.396 7.79485C12.3347 7.82021 12.3057 7.89041 12.331 7.95163C12.3564 8.01286 12.4266 8.04194 12.4878 8.01658C12.549 7.99122 12.5781 7.92102 12.5528 7.85979Z" fill="#000088"/>
<path d="M15.3543 8.89348L14.1018 9.5242L13.5645 9.92681L14.1818 9.66276L15.3543 8.89348Z" fill="#000088"/>
<path d="M13.1481 7.73056C13.1394 7.66485 13.0791 7.6186 13.0134 7.62725C12.9477 7.6359 12.9015 7.69618 12.9101 7.76189C12.9188 7.82759 12.979 7.87385 13.0448 7.8652C13.1105 7.85655 13.1567 7.79627 13.1481 7.73056Z" fill="#000088"/>
<path d="M15.5869 9.45619L14.2139 9.74127L13.5906 9.99109L14.2553 9.89581L15.5869 9.45619Z" fill="#000088"/>
<path d="M13.7575 7.76392C13.7662 7.69821 13.7199 7.63793 13.6542 7.62928C13.5885 7.62063 13.5282 7.66688 13.5196 7.73259C13.5109 7.7983 13.5572 7.85858 13.6229 7.86723C13.6886 7.87588 13.7489 7.82962 13.7575 7.76392Z" fill="#000088"/>
<path d="M15.6663 10.0606L14.2663 9.98063L13.5996 10.0606L14.2663 10.1406L15.6663 10.0606Z" fill="#000088"/>
<path d="M14.338 7.94973C14.3633 7.8885 14.3343 7.8183 14.273 7.79294C14.2118 7.76758 14.1416 7.79666 14.1162 7.85788C14.0909 7.91911 14.1199 7.98931 14.1812 8.01467C14.2424 8.04003 14.3126 8.01096 14.338 7.94973Z" fill="#000088"/>
<path d="M15.5873 10.6646L14.2557 10.225L13.591 10.1298L14.2143 10.3796L15.5873 10.6646Z" fill="#000088"/>
<path d="M14.8494 8.28332C14.8897 8.23074 14.8798 8.15541 14.8272 8.11507C14.7747 8.07472 14.6993 8.08464 14.659 8.13722C14.6186 8.1898 14.6286 8.26513 14.6811 8.30547C14.7337 8.34582 14.809 8.3359 14.8494 8.28332Z" fill="#000088"/>
<path d="M15.3542 11.2277L14.1818 10.4584L13.5644 10.1944L14.1018 10.597L15.3542 11.2277Z" fill="#000088"/>
<path d="M15.2589 8.73649C15.3115 8.69615 15.3214 8.62082 15.281 8.56824C15.2407 8.51566 15.1654 8.50574 15.1128 8.54609C15.0602 8.58643 15.0503 8.66176 15.0906 8.71434C15.131 8.76692 15.2063 8.77684 15.2589 8.73649Z" fill="#000088"/>
<path d="M14.9837 11.7114L14.0504 10.6649L13.5224 10.2501L13.9372 10.778L14.9837 11.7114Z" fill="#000088"/>
<path d="M15.5357 9.28128C15.5969 9.25592 15.626 9.18572 15.6007 9.12449C15.5753 9.06326 15.5051 9.03418 15.4439 9.05955C15.3826 9.08491 15.3536 9.1551 15.3789 9.21633C15.4043 9.27756 15.4745 9.30664 15.5357 9.28128Z" fill="#000088"/>
<path d="M14.5001 12.0838L13.8694 10.8313L13.4667 10.294L13.7308 10.9113L14.5001 12.0838Z" fill="#000088"/>
<path d="M15.662 9.87853C15.7277 9.86988 15.774 9.8096 15.7653 9.7439C15.7567 9.67819 15.6964 9.63194 15.6307 9.64059C15.565 9.64924 15.5187 9.70952 15.5274 9.77522C15.536 9.84093 15.5963 9.88718 15.662 9.87853Z" fill="#000088"/>
<path d="M13.9364 12.3154L13.6513 10.9424L13.4015 10.3191L13.4968 10.9838L13.9364 12.3154Z" fill="#000088"/>
</g>
<defs>
<clipPath id="clip0_1479_5581">
<rect y="0.0625" width="26.6667" height="20" rx="4" fill="white"/>
</clipPath>
</defs>
</svg>
