<svg width="20" height="20" viewBox="0 0 20 20" fill="none" xmlns="http://www.w3.org/2000/svg">
<g id="brifecase-timer">
<path id="Vector" d="M9.99984 15.1667C11.8408 15.1667 13.3332 13.6743 13.3332 11.8333C13.3332 9.99238 11.8408 8.5 9.99984 8.5C8.15889 8.5 6.6665 9.99238 6.6665 11.8333C6.6665 13.6743 8.15889 15.1667 9.99984 15.1667Z" stroke="#808B97" stroke-width="1.2" stroke-miterlimit="10" stroke-linecap="round" stroke-linejoin="round"/>
<path id="Vector_2" d="M10.2082 10.792V11.567C10.2082 11.8587 10.0582 12.1337 9.79984 12.2837L9.1665 12.667" stroke="#808B97" stroke-width="1.2" stroke-miterlimit="10" stroke-linecap="round" stroke-linejoin="round"/>
<path id="Vector_3" d="M6.66636 18.3333H13.333C16.683 18.3333 17.283 16.9917 17.458 15.3583L18.083 8.69167C18.308 6.65833 17.7247 5 14.1664 5H5.83303C2.27469 5 1.69136 6.65833 1.91636 8.69167L2.54136 15.3583C2.71636 16.9917 3.31636 18.3333 6.66636 18.3333Z" stroke="#808B97" stroke-width="1.2" stroke-miterlimit="10" stroke-linecap="round" stroke-linejoin="round"/>
<path id="Vector_4" d="M6.6665 5.00033V4.33366C6.6665 2.85866 6.6665 1.66699 9.33317 1.66699H10.6665C13.3332 1.66699 13.3332 2.85866 13.3332 4.33366V5.00033" stroke="#808B97" stroke-width="1.2" stroke-miterlimit="10" stroke-linecap="round" stroke-linejoin="round"/>
<path id="Vector_5" d="M18.0413 9.16699C16.5996 10.217 14.9996 10.9503 13.3413 11.367" stroke="#808B97" stroke-width="1.2" stroke-miterlimit="10" stroke-linecap="round" stroke-linejoin="round"/>
<path id="Vector_6" d="M2.18359 9.3916C3.57526 10.3416 5.09193 11.0166 6.66693 11.3999" stroke="#808B97" stroke-width="1.2" stroke-miterlimit="10" stroke-linecap="round" stroke-linejoin="round"/>
</g>
</svg>
