<svg width="16" height="16" viewBox="0 0 16 16" fill="none" xmlns="http://www.w3.org/2000/svg">
<g id="Icon">
<g id="vuesax/linear/message">
<g id="message">
<path id="Vector" d="M5.66634 12.6668H5.33301C2.66634 12.6668 1.33301 12.0002 1.33301 8.66683V5.3335C1.33301 2.66683 2.66634 1.3335 5.33301 1.3335H10.6663C13.333 1.3335 14.6663 2.66683 14.6663 5.3335V8.66683C14.6663 11.3335 13.333 12.6668 10.6663 12.6668H10.333C10.1263 12.6668 9.92634 12.7668 9.79967 12.9335L8.79967 14.2668C8.35967 14.8535 7.63967 14.8535 7.19967 14.2668L6.19967 12.9335C6.09301 12.7868 5.84634 12.6668 5.66634 12.6668Z" stroke="#808B97" stroke-width="1.2" stroke-miterlimit="10" stroke-linecap="round" stroke-linejoin="round"/>
<path id="Line" d="M10.6646 7.33333H10.6706" stroke="#808B97" stroke-width="1.5" stroke-linecap="round" stroke-linejoin="round"/>
<path id="Line_2" d="M7.99666 7.33333H8.00265" stroke="#808B97" stroke-width="1.5" stroke-linecap="round" stroke-linejoin="round"/>
<path id="Line_3" d="M5.32967 7.33333H5.33566" stroke="#808B97" stroke-width="1.5" stroke-linecap="round" stroke-linejoin="round"/>
</g>
</g>
</g>
</svg>
