<svg width="18" height="18" viewBox="0 0 18 18" fill="none" xmlns="http://www.w3.org/2000/svg">
<path d="M14.25 5.25V12.75C14.25 15.75 13.5938 16.5 10.9688 16.5H7.03125C4.40625 16.5 3.75 15.75 3.75 12.75V5.25C3.75 2.25 4.40625 1.5 7.03125 1.5H10.9688C13.5938 1.5 14.25 2.25 14.25 5.25Z" stroke="#00162E" stroke-width="1.2" stroke-linecap="round" stroke-linejoin="round"/>
<path d="M10.5 4.125H7.5" stroke="#00162E" stroke-width="1.2" stroke-linecap="round" stroke-linejoin="round"/>
<path d="M9.00039 14.325C9.64242 14.325 10.1629 13.8045 10.1629 13.1625C10.1629 12.5205 9.64242 12 9.00039 12C8.35836 12 7.83789 12.5205 7.83789 13.1625C7.83789 13.8045 8.35836 14.325 9.00039 14.325Z" stroke="#00162E" stroke-width="1.2" stroke-linecap="round" stroke-linejoin="round"/>
</svg>
