<svg width="24" height="26" viewBox="0 0 24 26" fill="none" xmlns="http://www.w3.org/2000/svg">
<path d="M19.0283 4.13672H20.692" stroke="#00162E" stroke-width="1.2" stroke-miterlimit="10" stroke-linecap="round" stroke-linejoin="round"/>
<path d="M6.16676 4.13672H4.44265C3.81579 4.13672 3.30762 4.64489 3.30762 5.27175V8.4818C3.30762 9.10866 3.81579 9.61683 4.44265 9.61683H11.4216C12.0711 9.61683 12.5976 10.1433 12.5976 10.7928V13.5525" stroke="#00162E" stroke-width="1.2" stroke-miterlimit="10" stroke-linecap="round" stroke-linejoin="round"/>
<path d="M12.5977 24.484C11.3867 24.484 10.42 23.4744 10.4728 22.2645L10.8525 13.5518H14.3429L14.7226 22.2645C14.7754 23.4744 13.8088 24.484 12.5977 24.484Z" stroke="#00162E" stroke-width="1.2" stroke-miterlimit="10" stroke-linecap="round" stroke-linejoin="round"/>
<path d="M18.3802 6.75747H6.81499C6.4571 6.75747 6.16699 6.46736 6.16699 6.10947V2.16362C6.16699 1.80573 6.4571 1.51562 6.81499 1.51562H18.3802C18.7381 1.51562 19.0282 1.80573 19.0282 2.16362V6.10947C19.0282 6.46731 18.7381 6.75747 18.3802 6.75747Z" stroke="#00162E" stroke-width="1.2" stroke-miterlimit="10" stroke-linecap="round" stroke-linejoin="round"/>
<path d="M16.8162 12.5669C16.7599 11.1931 18.1109 9.62305 18.1109 9.62305C18.1109 9.62305 19.4619 11.1932 19.4056 12.5669C19.3391 14.1907 16.8827 14.1907 16.8162 12.5669Z" stroke="#00162E" stroke-width="1.2" stroke-miterlimit="10" stroke-linecap="round" stroke-linejoin="round"/>
</svg>
