<svg width="16" height="16" viewBox="0 0 16 16" fill="none" xmlns="http://www.w3.org/2000/svg">
<g id="Profile">
<g id="vuesax/linear/profile-circle">
<g id="profile-circle">
<path id="Vector" d="M8.08014 8.51999C8.03348 8.51332 7.97348 8.51332 7.92014 8.51999C6.74681 8.47999 5.81348 7.51999 5.81348 6.33999C5.81348 5.13332 6.78681 4.15332 8.00014 4.15332C9.20681 4.15332 10.1868 5.13332 10.1868 6.33999C10.1801 7.51999 9.25348 8.47999 8.08014 8.51999Z" fill="#5465FF"/>
<path id="Vector_2" d="M12.4935 12.92C11.3068 14.0067 9.7335 14.6667 8.00017 14.6667C6.26684 14.6667 4.6935 14.0067 3.50684 12.92C3.5735 12.2934 3.9735 11.68 4.68684 11.2C6.5135 9.98671 9.50017 9.98671 11.3135 11.2C12.0268 11.68 12.4268 12.2934 12.4935 12.92Z" fill="#5465FF"/>
<path id="Vector_3" d="M7.99967 14.6667C11.6816 14.6667 14.6663 11.6819 14.6663 8.00004C14.6663 4.31814 11.6816 1.33337 7.99967 1.33337C4.31778 1.33337 1.33301 4.31814 1.33301 8.00004C1.33301 11.6819 4.31778 14.6667 7.99967 14.6667Z" stroke="#5465FF" stroke-linecap="round" stroke-linejoin="round"/>
</g>
</g>
</g>
</svg>
