<svg width="18" height="11" viewBox="0 0 18 11" fill="none" xmlns="http://www.w3.org/2000/svg">
<g clip-path="url(#clip0_3296_3667)">
<path fill-rule="evenodd" clip-rule="evenodd" d="M1.54843 7.93736C5.26676 7.97346 8.78149 11 12.5 11C15.5376 11 18 8.53757 18 5.5C18 2.46243 15.5376 0 12.5 0C8.28731 0 4.29865 4 0.0859604 4H-87.086C-91.2987 4 -95.2873 0 -99.5 0C-102.538 0 -105 2.46243 -105 5.5C-105 8.53757 -102.538 11 -99.5 11C-95.7815 11 -92.2668 7.97346 -88.5484 7.93736L-43.5 7.5L1.54843 7.93736Z" fill="#00162E"/>
</g>
<defs>
<clipPath id="clip0_3296_3667">
<rect width="18" height="11" fill="white" transform="matrix(-1 0 0 1 18 0)"/>
</clipPath>
</defs>
</svg>
