<svg width="24" height="24" viewBox="0 0 24 24" fill="none" xmlns="http://www.w3.org/2000/svg">
<g clip-path="url(#clip0_390_2228)">
<path d="M20.1934 23.473V20.6113" stroke="#00162E" stroke-width="1.2" stroke-miterlimit="10"/>
<path d="M18.8585 10.3838C17.3115 12.9814 14.3409 14.7392 10.9304 14.7392C7.59 14.7392 4.6717 12.8937 3.09961 10.3838" stroke="#00162E" stroke-width="1.2" stroke-miterlimit="10" stroke-linecap="round" stroke-linejoin="round"/>
<path d="M10.873 17.4087V14.7393" stroke="#00162E" stroke-width="1.2" stroke-miterlimit="10" stroke-linecap="round" stroke-linejoin="round"/>
<path d="M2.9082 14.2841L4.79581 12.3965" stroke="#00162E" stroke-width="1.2" stroke-miterlimit="10" stroke-linecap="round" stroke-linejoin="round"/>
<path d="M6.64453 16.5972L7.57125 14.0938" stroke="#00162E" stroke-width="1.2" stroke-miterlimit="10" stroke-linecap="round" stroke-linejoin="round"/>
<path d="M19.0575 14.3046L17.1699 12.417" stroke="#00162E" stroke-width="1.2" stroke-miterlimit="10" stroke-linecap="round" stroke-linejoin="round"/>
<path d="M15.3095 16.6059L14.3828 14.1025" stroke="#00162E" stroke-width="1.2" stroke-miterlimit="10" stroke-linecap="round" stroke-linejoin="round"/>
<path d="M0.515625 3.18444V5.88706L9.83236 4.93231C13.4856 4.55408 17.1685 5.2775 20.4072 7.00948L23.4844 8.58284L19.701 3.08703C19.1135 2.29381 18.349 1.64858 17.4684 1.20252C16.4576 0.690547 15.3282 0.458469 14.1975 0.530375L2.30245 1.28127C1.29792 1.34469 0.515625 2.17789 0.515625 3.18444Z" stroke="#00162E" stroke-width="1.2" stroke-miterlimit="10" stroke-linecap="round" stroke-linejoin="round"/>
<path d="M4.52832 20.6104H23.4808V23.4818H4.52832" stroke="#00162E" stroke-width="1.2" stroke-miterlimit="10" stroke-linecap="round" stroke-linejoin="round"/>
<path d="M4.52793 20.6104L1.71777 21.9704L4.52793 23.4818L5.03484 23.1499C5.77795 22.6634 5.81545 21.5878 5.10801 21.0508L4.52793 20.6104Z" stroke="#00162E" stroke-width="1.2" stroke-miterlimit="10" stroke-linecap="round" stroke-linejoin="round"/>
<path d="M1.71804 21.9707H0.524414" stroke="#00162E" stroke-width="1.2" stroke-miterlimit="10" stroke-linecap="round" stroke-linejoin="round"/>
</g>
<defs>
<clipPath id="clip0_390_2228">
<rect width="24" height="24" fill="white"/>
</clipPath>
</defs>
</svg>
