<svg width="13" height="14" viewBox="0 0 13 14" fill="none" xmlns="http://www.w3.org/2000/svg">
<path d="M6.5 8.625C7.39746 8.625 8.125 7.89746 8.125 7C8.125 6.10254 7.39746 5.375 6.5 5.375C5.60254 5.375 4.875 6.10254 4.875 7C4.875 7.89746 5.60254 8.625 6.5 8.625Z" fill="#00162E"/>
<path d="M1.08301 7.47661V6.52328C1.08301 5.95995 1.54342 5.49411 2.11217 5.49411C3.09259 5.49411 3.49342 4.80078 3.00051 3.95036C2.71884 3.46286 2.88676 2.82911 3.37967 2.54745L4.31676 2.0112C4.74467 1.75661 5.29717 1.90828 5.55176 2.3362L5.61134 2.43911C6.09884 3.28953 6.90051 3.28953 7.39342 2.43911L7.45301 2.3362C7.70759 1.90828 8.26009 1.75661 8.68801 2.0112L9.62509 2.54745C10.118 2.82911 10.2859 3.46286 10.0043 3.95036C9.51134 4.80078 9.91217 5.49411 10.8926 5.49411C11.4559 5.49411 11.9218 5.95453 11.9218 6.52328V7.47661C11.9218 8.03995 11.4613 8.50578 10.8926 8.50578C9.91217 8.50578 9.51134 9.19911 10.0043 10.0495C10.2859 10.5424 10.118 11.1708 9.62509 11.4524L8.68801 11.9887C8.26009 12.2433 7.70759 12.0916 7.45301 11.6637L7.39342 11.5608C6.90592 10.7104 6.10426 10.7104 5.61134 11.5608L5.55176 11.6637C5.29717 12.0916 4.74467 12.2433 4.31676 11.9887L3.37967 11.4524C2.88676 11.1708 2.71884 10.537 3.00051 10.0495C3.49342 9.19911 3.09259 8.50578 2.11217 8.50578C1.54342 8.50578 1.08301 8.03995 1.08301 7.47661Z" stroke="#00162E" stroke-miterlimit="10" stroke-linecap="round" stroke-linejoin="round"/>
</svg>
