<svg width="12" height="13" viewBox="0 0 12 13" fill="none" xmlns="http://www.w3.org/2000/svg">
<path d="M5.38089 1.17344C5.64353 0.675634 6.35647 0.675635 6.61911 1.17344L7.97892 3.75076C8.08021 3.94273 8.26482 4.07685 8.47869 4.11386L11.3501 4.61068C11.9047 4.70664 12.125 5.38469 11.7327 5.7883L9.70173 7.878C9.55046 8.03365 9.47994 8.25067 9.51084 8.46551L9.92564 11.3499C10.0058 11.907 9.42898 12.326 8.92389 12.0777L6.30887 10.7919C6.11409 10.6961 5.88591 10.6961 5.69113 10.7919L3.07611 12.0777C2.57102 12.326 1.99424 11.907 2.07436 11.3499L2.48916 8.46551C2.52006 8.25067 2.44954 8.03365 2.29827 7.878L0.267292 5.7883C-0.124984 5.38469 0.0953261 4.70664 0.649926 4.61068L3.52131 4.11386C3.73518 4.07685 3.91979 3.94273 4.02108 3.75076L5.38089 1.17344Z" fill="#FFC412"/>
</svg>
