<svg width="28" height="14" viewBox="0 0 28 14" fill="none" xmlns="http://www.w3.org/2000/svg">
<path d="M6.38089 1.17344C6.64353 0.675634 7.35647 0.675635 7.61911 1.17344L8.97892 3.75076C9.08021 3.94273 9.26482 4.07685 9.47869 4.11386L12.3501 4.61068C12.9047 4.70664 13.125 5.38469 12.7327 5.7883L10.7017 7.878C10.5505 8.03365 10.4799 8.25067 10.5108 8.46551L10.9256 11.3499C11.0058 11.907 10.429 12.326 9.92389 12.0777L7.30887 10.7919C7.11409 10.6961 6.88591 10.6961 6.69113 10.7919L4.07611 12.0777C3.57102 12.326 2.99424 11.907 3.07436 11.3499L3.48916 8.46551C3.52006 8.25067 3.44954 8.03365 3.29827 7.878L1.26729 5.7883C0.875016 5.38469 1.09533 4.70664 1.64993 4.61068L4.52131 4.11386C4.73518 4.07685 4.91979 3.94273 5.02108 3.75076L6.38089 1.17344Z" fill="#FFC412"/>
<path d="M20.3809 1.17344C20.6435 0.675634 21.3565 0.675635 21.6191 1.17344L22.9789 3.75076C23.0802 3.94273 23.2648 4.07685 23.4787 4.11386L26.3501 4.61068C26.9047 4.70664 27.125 5.38469 26.7327 5.7883L24.7017 7.878C24.5505 8.03365 24.4799 8.25067 24.5108 8.46551L24.9256 11.3499C25.0058 11.907 24.429 12.326 23.9239 12.0777L21.3089 10.7919C21.1141 10.6961 20.8859 10.6961 20.6911 10.7919L18.0761 12.0777C17.571 12.326 16.9942 11.907 17.0744 11.3499L17.4892 8.46551C17.5201 8.25067 17.4495 8.03365 17.2983 7.878L15.2673 5.7883C14.875 5.38469 15.0953 4.70664 15.6499 4.61068L18.5213 4.11386C18.7352 4.07685 18.9198 3.94273 19.0211 3.75076L20.3809 1.17344Z" fill="#FFC412"/>
</svg>
