<svg width="13" height="13" viewBox="0 0 13 13" fill="none" xmlns="http://www.w3.org/2000/svg">
<g id="Icon">
<g id="vuesax/linear/star">
<g id="star">
<path id="Vector" d="M7.43716 1.90726L8.39049 3.82947C8.52049 4.09705 8.86716 4.35371 9.15966 4.40286L10.8876 4.69228C11.9926 4.87795 12.2526 5.68615 11.4563 6.48344L10.113 7.83772C9.88549 8.06707 9.76091 8.5094 9.83132 8.82613L10.2159 10.5026C10.5192 11.8296 9.82049 12.3429 8.65591 11.6494L7.03632 10.6828C6.74382 10.5081 6.26174 10.5081 5.96382 10.6828L4.34424 11.6494C3.18507 12.3429 2.48091 11.8241 2.78424 10.5026L3.16882 8.82613C3.23924 8.5094 3.11466 8.06707 2.88716 7.83772L1.54382 6.48344C0.752989 5.68615 1.00757 4.87795 2.11257 4.69228L3.84049 4.40286C4.12757 4.35371 4.47424 4.09705 4.60424 3.82947L5.55757 1.90726C6.07757 0.864246 6.92257 0.864246 7.43716 1.90726Z" fill="#FFC412"/>
</g>
</g>
</g>
</svg>
