<svg width="70" height="14" viewBox="0 0 70 14" fill="none" xmlns="http://www.w3.org/2000/svg">
<path d="M6.38089 1.17344C6.64353 0.675634 7.35647 0.675635 7.61911 1.17344L8.97892 3.75076C9.08021 3.94273 9.26482 4.07685 9.47869 4.11386L12.3501 4.61068C12.9047 4.70664 13.125 5.38469 12.7327 5.7883L10.7017 7.878C10.5505 8.03365 10.4799 8.25067 10.5108 8.46551L10.9256 11.3499C11.0058 11.907 10.429 12.326 9.92389 12.0777L7.30887 10.7919C7.11409 10.6961 6.88591 10.6961 6.69113 10.7919L4.07611 12.0777C3.57102 12.326 2.99424 11.907 3.07436 11.3499L3.48916 8.46551C3.52006 8.25067 3.44954 8.03365 3.29827 7.878L1.26729 5.7883C0.875016 5.38469 1.09533 4.70664 1.64993 4.61068L4.52131 4.11386C4.73518 4.07685 4.91979 3.94273 5.02108 3.75076L6.38089 1.17344Z" fill="#FFC412"/>
<path d="M20.3809 1.17344C20.6435 0.675634 21.3565 0.675635 21.6191 1.17344L22.9789 3.75076C23.0802 3.94273 23.2648 4.07685 23.4787 4.11386L26.3501 4.61068C26.9047 4.70664 27.125 5.38469 26.7327 5.7883L24.7017 7.878C24.5505 8.03365 24.4799 8.25067 24.5108 8.46551L24.9256 11.3499C25.0058 11.907 24.429 12.326 23.9239 12.0777L21.3089 10.7919C21.1141 10.6961 20.8859 10.6961 20.6911 10.7919L18.0761 12.0777C17.571 12.326 16.9942 11.907 17.0744 11.3499L17.4892 8.46551C17.5201 8.25067 17.4495 8.03365 17.2983 7.878L15.2673 5.7883C14.875 5.38469 15.0953 4.70664 15.6499 4.61068L18.5213 4.11386C18.7352 4.07685 18.9198 3.94273 19.0211 3.75076L20.3809 1.17344Z" fill="#FFC412"/>
<path d="M34.3809 1.17344C34.6435 0.675634 35.3565 0.675635 35.6191 1.17344L36.9789 3.75076C37.0802 3.94273 37.2648 4.07685 37.4787 4.11386L40.3501 4.61068C40.9047 4.70664 41.125 5.38469 40.7327 5.7883L38.7017 7.878C38.5505 8.03365 38.4799 8.25067 38.5108 8.46551L38.9256 11.3499C39.0058 11.907 38.429 12.326 37.9239 12.0777L35.3089 10.7919C35.1141 10.6961 34.8859 10.6961 34.6911 10.7919L32.0761 12.0777C31.571 12.326 30.9942 11.907 31.0744 11.3499L31.4892 8.46551C31.5201 8.25067 31.4495 8.03365 31.2983 7.878L29.2673 5.7883C28.875 5.38469 29.0953 4.70664 29.6499 4.61068L32.5213 4.11386C32.7352 4.07685 32.9198 3.94273 33.0211 3.75076L34.3809 1.17344Z" fill="#FFC412"/>
<path d="M48.3809 1.17344C48.6435 0.675634 49.3565 0.675635 49.6191 1.17344L50.9789 3.75076C51.0802 3.94273 51.2648 4.07685 51.4787 4.11386L54.3501 4.61068C54.9047 4.70664 55.125 5.38469 54.7327 5.7883L52.7017 7.878C52.5505 8.03365 52.4799 8.25067 52.5108 8.46551L52.9256 11.3499C53.0058 11.907 52.429 12.326 51.9239 12.0777L49.3089 10.7919C49.1141 10.6961 48.8859 10.6961 48.6911 10.7919L46.0761 12.0777C45.571 12.326 44.9942 11.907 45.0744 11.3499L45.4892 8.46551C45.5201 8.25067 45.4495 8.03365 45.2983 7.878L43.2673 5.7883C42.875 5.38469 43.0953 4.70664 43.6499 4.61068L46.5213 4.11386C46.7352 4.07685 46.9198 3.94273 47.0211 3.75076L48.3809 1.17344Z" fill="#FFC412"/>
<path d="M62.3809 1.17344C62.6435 0.675634 63.3565 0.675635 63.6191 1.17344L64.9789 3.75076C65.0802 3.94273 65.2648 4.07685 65.4787 4.11386L68.3501 4.61068C68.9047 4.70664 69.125 5.38469 68.7327 5.7883L66.7017 7.878C66.5505 8.03365 66.4799 8.25067 66.5108 8.46551L66.9256 11.3499C67.0058 11.907 66.429 12.326 65.9239 12.0777L63.3089 10.7919C63.1141 10.6961 62.8859 10.6961 62.6911 10.7919L60.0761 12.0777C59.571 12.326 58.9942 11.907 59.0744 11.3499L59.4892 8.46551C59.5201 8.25067 59.4495 8.03365 59.2983 7.878L57.2673 5.7883C56.875 5.38469 57.0953 4.70664 57.6499 4.61068L60.5213 4.11386C60.7352 4.07685 60.9198 3.94273 61.0211 3.75076L62.3809 1.17344Z" fill="#FFC412"/>
</svg>
