<svg width="20" height="21" viewBox="0 0 20 21" fill="none" xmlns="http://www.w3.org/2000/svg">
<path d="M18.3337 8.02787V13.0224C18.3337 15.1034 17.917 16.5602 16.9837 17.5008L11.667 12.19L18.1087 5.75537C18.2587 6.41298 18.3337 7.16216 18.3337 8.02787Z" stroke="#808B97" stroke-width="1.2" stroke-linecap="round" stroke-linejoin="round"/>
<path d="M18.1087 5.75512L5.22532 18.6243C2.71698 18.0499 1.66699 16.3185 1.66699 13.0221V8.02762C1.66699 3.86552 3.33366 2.20068 7.50033 2.20068H12.5003C15.8003 2.20068 17.5337 3.24954 18.1087 5.75512Z" stroke="#808B97" stroke-width="1.2" stroke-linecap="round" stroke-linejoin="round"/>
<path d="M16.983 17.5008C16.0413 18.4331 14.583 18.8493 12.4996 18.8493H7.49962C6.63295 18.8493 5.88294 18.7744 5.22461 18.6245L11.6663 12.1899L16.983 17.5008Z" stroke="#808B97" stroke-width="1.2" stroke-linecap="round" stroke-linejoin="round"/>
<path d="M5.19973 7.17885C5.7664 4.73986 9.43307 4.73986 9.99974 7.17885C10.3247 8.61061 9.42473 9.82595 8.63306 10.5751C8.05806 11.1245 7.14974 11.1245 6.56641 10.5751C5.77474 9.82595 4.8664 8.61061 5.19973 7.17885Z" stroke="#808B97" stroke-width="1.2"/>
<path d="M7.57811 7.77897H7.58559" stroke="#808B97" stroke-width="1.5" stroke-linecap="round" stroke-linejoin="round"/>
</svg>
