<svg width="20" height="20" viewBox="0 0 20 20" fill="none" xmlns="http://www.w3.org/2000/svg">
<g clip-path="url(#clip0_967_7131)">
<path d="M5.1563 6.52188L3.80317 6.80938L3.79692 11.2594C3.79692 12.0812 4.41567 12.6125 5.23755 12.6125C5.6938 12.6125 6.02817 12.5281 6.21255 12.4281V11.3719C6.03442 11.4437 5.15942 11.7 5.15942 10.8813V8.90625H6.21255V7.725H5.15942L5.1563 6.52188ZM7.94067 8.13438L7.8563 7.725H6.6563V12.5125H8.04067V9.29063C8.3688 8.85938 8.92192 8.94375 9.10005 9V7.725C8.91255 7.65938 8.26567 7.5375 7.94067 8.13438ZM10.825 5.875L9.4313 6.17188V7.30313L10.825 7.00625V5.875ZM1.40317 9.13438C1.40317 8.91875 1.58442 8.83438 1.87505 8.83125C2.29692 8.83125 2.83442 8.95938 3.2563 9.1875V7.88125C2.81722 7.70994 2.34947 7.62403 1.87817 7.62813C0.753174 7.62813 0.00317383 8.21563 0.00317383 9.19688C0.00317383 10.7344 2.11255 10.4844 2.11255 11.1469C2.11255 11.4031 1.89067 11.4875 1.5813 11.4875C1.12192 11.4875 0.528174 11.2969 0.0625488 11.0438V12.2938C0.578174 12.5156 1.10005 12.6094 1.57817 12.6094C2.7313 12.6094 3.52505 12.1156 3.52505 11.1156C3.52505 9.4625 1.40317 9.75938 1.40317 9.13438ZM20 10.175C20 8.75313 19.3125 7.63125 17.9938 7.63125C16.6751 7.63125 15.8719 8.75312 15.8719 10.1656C15.8719 11.8375 16.8188 12.6094 18.1688 12.6094C18.8313 12.6094 19.3282 12.4594 19.7063 12.25V11.2063C19.3282 11.3969 18.8938 11.5125 18.3438 11.5125C17.8032 11.5125 17.3282 11.3219 17.2657 10.6719H19.9813C19.9875 10.6 20 10.3094 20 10.175ZM17.2532 9.65C17.2532 9.025 17.6375 8.7625 17.9844 8.7625C18.325 8.7625 18.6875 9.025 18.6875 9.65H17.2532ZM13.725 7.63125C13.1813 7.63125 12.8313 7.8875 12.6375 8.06563L12.5657 7.72187H11.3438V14.1219L12.7313 13.8281L12.7344 12.2594C12.9344 12.4062 13.2313 12.6094 13.7157 12.6094C14.7094 12.6094 15.6157 11.8844 15.6157 10.1219C15.6188 8.50938 14.7 7.63125 13.725 7.63125ZM13.3938 11.4594C13.0688 11.4594 12.875 11.3406 12.7407 11.1969L12.7313 9.13438C12.875 8.975 13.075 8.85938 13.3938 8.85938C13.9 8.85938 14.25 9.42813 14.25 10.1531C14.2532 10.9 13.9094 11.4594 13.3938 11.4594ZM9.43442 12.5125H10.8282V7.725H9.43442V12.5125Z" fill="#00162E"/>
</g>
<defs>
<clipPath id="clip0_967_7131">
<rect width="20" height="20" fill="white"/>
</clipPath>
</defs>
</svg>
