<svg width="18" height="18" viewBox="0 0 18 18" fill="none" xmlns="http://www.w3.org/2000/svg">
<g id="translate">
<path id="Vector" d="M14.295 14.0033L12.69 10.8008L11.085 14.0033" stroke="#00162E" stroke-width="1.2" stroke-linecap="round" stroke-linejoin="round"/>
<path id="Vector_2" d="M11.377 13.4336H14.017" stroke="#00162E" stroke-width="1.2" stroke-linecap="round" stroke-linejoin="round"/>
<path id="Vector_3" d="M12.6899 16.4989C10.5899 16.4989 8.87988 14.7964 8.87988 12.6889C8.87988 10.5889 10.5824 8.87891 12.6899 8.87891C14.7899 8.87891 16.4999 10.5814 16.4999 12.6889C16.4999 14.7964 14.7974 16.4989 12.6899 16.4989Z" stroke="#00162E" stroke-width="1.2" stroke-linecap="round" stroke-linejoin="round"/>
<path id="Vector_4" d="M3.765 1.5H6.705C8.2575 1.5 9.00751 2.25001 8.97001 3.76501V6.705C9.00751 8.2575 8.2575 9.00752 6.705 8.97002H3.765C2.25 9.00002 1.5 8.24999 1.5 6.69749V3.75751C1.5 2.25001 2.25 1.5 3.765 1.5Z" stroke="#00162E" stroke-width="1.2" stroke-linecap="round" stroke-linejoin="round"/>
<g id="Group">
<path id="Vector_5" d="M6.75789 4.38867H3.71289" stroke="#00162E" stroke-width="1.2" stroke-linecap="round" stroke-linejoin="round"/>
<path id="Vector_6" d="M5.22754 3.87891V4.3889" stroke="#00162E" stroke-width="1.2" stroke-linecap="round" stroke-linejoin="round"/>
<path id="Vector_7" d="M5.99258 4.38086C5.99258 5.69336 4.96508 6.75835 3.70508 6.75835" stroke="#00162E" stroke-width="1.2" stroke-linecap="round" stroke-linejoin="round"/>
<path id="Vector_8" d="M6.75761 6.75946C6.21011 6.75946 5.71512 6.46695 5.37012 6.00195" stroke="#00162E" stroke-width="1.2" stroke-linecap="round" stroke-linejoin="round"/>
</g>
<g id="Group_2">
<path id="Vector_9" d="M1.5 11.25C1.5 14.1525 3.8475 16.5 6.75 16.5L5.9625 15.1875" stroke="#00162E" stroke-width="1.2" stroke-linecap="round" stroke-linejoin="round"/>
<path id="Vector_10" d="M16.5 6.75C16.5 3.8475 14.1525 1.5 11.25 1.5L12.0375 2.8125" stroke="#00162E" stroke-width="1.2" stroke-linecap="round" stroke-linejoin="round"/>
</g>
</g>
</svg>
