<svg width="10" height="10" viewBox="0 0 10 10" fill="none" xmlns="http://www.w3.org/2000/svg">
<path d="M4.97951 2.3592C4.19611 2.3593 3.41991 2.696 3.50151 3.3688L3.70151 4.8312C3.73661 5.0885 3.91051 5.5 4.17021 5.5H4.18871L4.40141 7.9531C4.41061 8.0635 4.49061 8.1531 4.60141 8.1531H5.40141C5.51221 8.1531 5.59221 8.0635 5.60141 7.9531L5.81411 5.5H5.83271C6.09241 5.5 6.26621 5.0885 6.30141 4.8312L6.50141 3.3688C6.55381 2.6954 5.76301 2.359 4.97951 2.3592Z" fill="#00162E"/>
<path d="M4.99971 2.1C5.57961 2.1 6.04971 1.6299 6.04971 1.05C6.04971 0.470101 5.57961 0 4.99971 0C4.41981 0 3.94971 0.470101 3.94971 1.05C3.94971 1.6299 4.41981 2.1 4.99971 2.1Z" fill="#00162E"/>
<path d="M1.85156 8.33333C1.85156 7.61741 2.43193 7.03704 3.14786 7.03704H6.85156C7.56749 7.03704 8.14786 7.61741 8.14786 8.33333C8.14786 9.04926 7.56749 9.62963 6.85156 9.62963H3.14786C2.43193 9.62963 1.85156 9.04926 1.85156 8.33333Z" fill="#00162E"/>
</svg>
