<svg width="20" height="20" viewBox="0 0 20 20" fill="none" xmlns="http://www.w3.org/2000/svg">
<path fill-rule="evenodd" clip-rule="evenodd" d="M17.5833 6.66984C17.5374 6.6665 17.4866 6.6665 17.4333 6.6665H15.3291C13.6058 6.6665 12.1316 8.02317 12.1316 9.7915C12.1316 11.5598 13.6066 12.9165 15.3291 12.9165H17.4333C17.4866 12.9165 17.5374 12.9165 17.5849 12.9132C17.9391 12.8918 18.2735 12.7424 18.5257 12.4928C18.7779 12.2432 18.9307 11.9105 18.9558 11.5565C18.9591 11.5065 18.9591 11.4523 18.9591 11.4023V8.18067C18.9591 8.13067 18.9591 8.0765 18.9558 8.0265C18.9307 7.67256 18.7779 7.33978 18.5257 7.09018C18.2735 6.84059 17.9391 6.69119 17.5849 6.66984H17.5833ZM15.1433 10.6248C15.5866 10.6248 15.9458 10.2515 15.9458 9.7915C15.9458 9.3315 15.5866 8.95817 15.1433 8.95817C14.6991 8.95817 14.3399 9.3315 14.3399 9.7915C14.3399 10.2515 14.6991 10.6248 15.1433 10.6248Z" fill="#5465FF"/>
<path fill-rule="evenodd" clip-rule="evenodd" d="M17.4316 14.1667C17.4604 14.1655 17.4891 14.1712 17.5153 14.1832C17.5415 14.1952 17.5646 14.2132 17.5825 14.2358C17.6004 14.2583 17.6128 14.2848 17.6186 14.3131C17.6244 14.3413 17.6234 14.3705 17.6158 14.3983C17.4491 14.9917 17.1833 15.4983 16.7575 15.9233C16.1333 16.5483 15.3425 16.8242 14.3658 16.9558C13.4158 17.0833 12.2033 17.0833 10.6716 17.0833H8.91163C7.37996 17.0833 6.16663 17.0833 5.21746 16.9558C4.24079 16.8242 3.44996 16.5475 2.82579 15.9242C2.20246 15.3 1.92579 14.5092 1.79413 13.5325C1.66663 12.5825 1.66663 11.37 1.66663 9.83833V9.745C1.66663 8.21333 1.66663 7 1.79413 6.05C1.92579 5.07333 2.20246 4.2825 2.82579 3.65833C3.44996 3.035 4.24079 2.75833 5.21746 2.62667C6.16746 2.5 7.37996 2.5 8.91163 2.5H10.6716C12.2033 2.5 13.4166 2.5 14.3658 2.6275C15.3425 2.75917 16.1333 3.03583 16.7575 3.65917C17.1833 4.08583 17.4491 4.59167 17.6158 5.185C17.6234 5.21281 17.6244 5.24202 17.6186 5.27027C17.6128 5.29851 17.6004 5.325 17.5825 5.34757C17.5646 5.37014 17.5415 5.38816 17.5153 5.40016C17.4891 5.41217 17.4604 5.41782 17.4316 5.41667H15.3283C12.9641 5.41667 10.8808 7.28333 10.8808 9.79167C10.8808 12.3 12.9641 14.1667 15.3283 14.1667H17.4316ZM4.79163 5.83333C4.62587 5.83333 4.46689 5.89918 4.34968 6.01639C4.23247 6.1336 4.16663 6.29257 4.16663 6.45833C4.16663 6.62409 4.23247 6.78306 4.34968 6.90027C4.46689 7.01748 4.62587 7.08333 4.79163 7.08333H8.12496C8.29072 7.08333 8.44969 7.01748 8.5669 6.90027C8.68411 6.78306 8.74996 6.62409 8.74996 6.45833C8.74996 6.29257 8.68411 6.1336 8.5669 6.01639C8.44969 5.89918 8.29072 5.83333 8.12496 5.83333H4.79163Z" fill="#5465FF"/>
</svg>
