<svg width="16" height="16" viewBox="0 0 16 16" fill="none" xmlns="http://www.w3.org/2000/svg">
<path d="M4.59967 13.6757C5.59967 14.2732 6.79967 14.6051 7.99967 14.6051C11.6663 14.6051 14.6663 11.6178 14.6663 7.96663C14.6663 4.31545 11.6663 1.32812 7.99967 1.32812C4.33301 1.32812 1.33301 4.31545 1.33301 7.96663C1.33301 9.16156 1.66634 10.2901 2.19967 11.2859L1.77516 12.9117C1.57967 13.6604 2.2721 14.338 3.01637 14.1262L4.59967 13.6757Z" stroke="#5465FF" stroke-width="1.2" stroke-miterlimit="10" stroke-linecap="round" stroke-linejoin="round"/>
<path d="M11 9.85682C11 9.96437 10.976 10.0749 10.9249 10.1824C10.8738 10.29 10.8077 10.3916 10.7206 10.4871C10.5734 10.6485 10.4111 10.765 10.2278 10.8397C10.0476 10.9143 9.85228 10.9532 9.64196 10.9532C9.3355 10.9532 9.00801 10.8815 8.66249 10.7351C8.31698 10.5887 7.97146 10.3916 7.62894 10.1436C7.28343 9.89267 6.95593 9.61485 6.64347 9.30715C6.334 8.99647 6.05458 8.67085 5.80521 8.3303C5.55884 7.98974 5.36054 7.64919 5.21632 7.31162C5.07211 6.97106 5 6.64544 5 6.33476C5 6.13162 5.03605 5.93745 5.10816 5.75821C5.18027 5.57598 5.29444 5.40869 5.45368 5.25932C5.64597 5.07112 5.85628 4.97852 6.07862 4.97852C6.16274 4.97852 6.24687 4.99644 6.32198 5.03229C6.4001 5.06814 6.4692 5.12191 6.52329 5.19958L7.22033 6.17643C7.27441 6.25112 7.31347 6.31983 7.34051 6.38555C7.36755 6.44828 7.38257 6.51102 7.38257 6.56777C7.38257 6.63947 7.36154 6.71117 7.31948 6.77987C7.28042 6.84858 7.22334 6.92028 7.15123 6.99197L6.92288 7.22797C6.88983 7.26083 6.87481 7.29967 6.87481 7.34747C6.87481 7.37137 6.87782 7.39228 6.88383 7.41618C6.89284 7.44007 6.90185 7.458 6.90786 7.47592C6.96194 7.5745 7.05508 7.70296 7.18728 7.8583C7.32248 8.01364 7.4667 8.17197 7.62293 8.3303C7.78518 8.48863 7.94141 8.63501 8.10065 8.76944C8.25689 8.90088 8.38608 8.9905 8.48823 9.04427C8.50325 9.05024 8.52128 9.05921 8.54231 9.06817C8.56635 9.07713 8.59039 9.08012 8.61743 9.08012C8.6685 9.08012 8.70756 9.06219 8.74061 9.02933L8.96895 8.80528C9.04407 8.7306 9.11617 8.67384 9.18528 8.63799C9.25438 8.59617 9.32349 8.57526 9.3986 8.57526C9.45568 8.57526 9.51577 8.58721 9.58187 8.61409C9.64797 8.64098 9.71708 8.67982 9.79219 8.7306L10.7867 9.43262C10.8648 9.48639 10.9189 9.54913 10.9519 9.62381C10.982 9.69849 11 9.77318 11 9.85682Z" stroke="#5465FF" stroke-miterlimit="10"/>
</svg>
