<svg width="23" height="23" viewBox="0 0 23 23" fill="none" xmlns="http://www.w3.org/2000/svg">
<path d="M11.5 18.6875C15.4695 18.6875 18.6875 15.4695 18.6875 11.5C18.6875 7.53045 15.4695 4.3125 11.5 4.3125C7.53045 4.3125 4.3125 7.53045 4.3125 11.5C4.3125 15.4695 7.53045 18.6875 11.5 18.6875Z" stroke="#808B97" stroke-width="1.2" stroke-linecap="round" stroke-linejoin="round"/>
<path d="M11.5 14.375C13.0878 14.375 14.375 13.0878 14.375 11.5C14.375 9.91218 13.0878 8.625 11.5 8.625C9.91218 8.625 8.625 9.91218 8.625 11.5C8.625 13.0878 9.91218 14.375 11.5 14.375Z" stroke="#808B97" stroke-width="1.2" stroke-linecap="round" stroke-linejoin="round"/>
<path d="M11.5 3.83171V1.91504" stroke="#808B97" stroke-width="1.2" stroke-linecap="round" stroke-linejoin="round"/>
<path d="M3.83464 11.5H1.91797" stroke="#808B97" stroke-width="1.2" stroke-linecap="round" stroke-linejoin="round"/>
<path d="M11.5 19.165V21.0817" stroke="#808B97" stroke-width="1.2" stroke-linecap="round" stroke-linejoin="round"/>
<path d="M19.168 11.5H21.0846" stroke="#808B97" stroke-width="1.2" stroke-linecap="round" stroke-linejoin="round"/>
</svg>
